<?xml version="1.0" encoding="UTF-8" standalone="no"?>
<!-- Created with Inkscape (http://www.inkscape.org/) -->

<svg
   xmlns:dc="http://purl.org/dc/elements/1.1/"
   xmlns:cc="http://creativecommons.org/ns#"
   xmlns:rdf="http://www.w3.org/1999/02/22-rdf-syntax-ns#"
   xmlns:svg="http://www.w3.org/2000/svg"
   xmlns="http://www.w3.org/2000/svg"
   xmlns:sodipodi="http://sodipodi.sourceforge.net/DTD/sodipodi-0.dtd"
   xmlns:inkscape="http://www.inkscape.org/namespaces/inkscape"
   version="1.1"
   id="Layer_1"
   x="0px"
   y="0px"
   width="320px"
   height="180px"
   viewBox="0 0 320 180"
   enable-background="new 0 0 320 180"
   xml:space="preserve"
   inkscape:version="0.91 r13725"
   sodipodi:docname="banner_ink.svg"><metadata
     id="metadata4734"><rdf:RDF><cc:Work
         rdf:about=""><dc:format>image/svg+xml</dc:format><dc:type
           rdf:resource="http://purl.org/dc/dcmitype/StillImage" /><dc:title></dc:title></cc:Work></rdf:RDF></metadata><defs
     id="defs4732" /><sodipodi:namedview
     pagecolor="#ffffff"
     bordercolor="#666666"
     borderopacity="1"
     objecttolerance="10"
     gridtolerance="10"
     guidetolerance="10"
     inkscape:pageopacity="0"
     inkscape:pageshadow="2"
     inkscape:window-width="1920"
     inkscape:window-height="1017"
     id="namedview4730"
     showgrid="false"
     inkscape:zoom="0.9"
     inkscape:cx="-6.1111111"
     inkscape:cy="90"
     inkscape:window-x="-8"
     inkscape:window-y="-8"
     inkscape:window-maximized="1"
     inkscape:current-layer="Layer_1" /><g
     id="Layer_2"
     display="none" /><g
     id="Layer_4"
     display="none"><g
       display="inline"
       id="g4439"><rect
         x="44.905"
         y="64.556"
         fill="none"
         stroke="#000000"
         stroke-width="0.25"
         stroke-miterlimit="10"
         width="230.488"
         height="50.999"
         id="rect4441" /><line
         fill="none"
         stroke="#000000"
         stroke-width="0.1"
         stroke-miterlimit="10"
         x1="44.607"
         y1="103.534"
         x2="275.393"
         y2="103.534"
         id="line4443" /><rect
         x="95.863"
         y="64.446"
         fill="none"
         stroke="#000000"
         stroke-width="0.1"
         stroke-miterlimit="10"
         width="3.65"
         height="50.998"
         id="rect4445" /><rect
         x="150.399"
         y="64.447"
         fill="none"
         stroke="#000000"
         stroke-width="0.1"
         stroke-miterlimit="10"
         width="3.65"
         height="50.997"
         id="rect4447" /><rect
         x="166.211"
         y="64.447"
         fill="none"
         stroke="#000000"
         stroke-width="0.1"
         stroke-miterlimit="10"
         width="3.65"
         height="50.997"
         id="rect4449" /><rect
         x="220.874"
         y="64.447"
         fill="none"
         stroke="#000000"
         stroke-width="0.1"
         stroke-miterlimit="10"
         width="3.649"
         height="50.997"
         id="rect4451" /></g></g><g
     id="Layer_1_1_"><g
       id="g4454"><g
         enable-background="new    "
         id="g4456"><path
           fill="#96C43D"
           d="M0,17C0,7.65,7.65,0,17,0h286c9.35,0,17,7.65,17,17v146c0,9.35-7.65,17-17,17H17c-9.35,0-17-7.65-17-17     V17z"
           id="path4458" /></g></g></g><g
     id="g4460"><g
       id="g4462"><path
         fill="#FFFFFF"
         d="M163.882,67.852l-0.039,0.04c0,0-0.011,0.01-0.021,0.01c-1.18,1.04-2.729,1.67-4.42,1.67h-0.169    c-0.12-0.01-0.239-0.01-0.361-0.021c-0.112-0.009-0.221-0.02-0.32-0.03c-0.109-0.02-0.21-0.029-0.312-0.049    c-0.047-0.011-0.099-0.021-0.148-0.03c-0.049-0.01-0.101-0.021-0.15-0.029c-0.039-0.011-0.091-0.021-0.12-0.03    c-0.112-0.021-0.21-0.051-0.299-0.08c-0.052-0.011-0.101-0.03-0.14-0.041c-0.021-0.009-0.042-0.009-0.052-0.02    c-0.049-0.01-0.088-0.029-0.14-0.04c-0.049-0.021-0.099-0.04-0.161-0.06c-0.047-0.02-0.099-0.04-0.148-0.06    c-0.109-0.051-0.21-0.091-0.309-0.141c-0.052-0.021-0.099-0.04-0.151-0.07c-0.049-0.029-0.099-0.051-0.151-0.08    c-0.049-0.02-0.099-0.05-0.15-0.079c-0.049-0.021-0.088-0.051-0.14-0.081c-0.058-0.029-0.109-0.06-0.159-0.1    c-0.06-0.03-0.112-0.07-0.159-0.101c-0.052-0.039-0.101-0.07-0.161-0.11c-0.052-0.028-0.099-0.068-0.151-0.108    c-0.021-0.021-0.049-0.041-0.078-0.061c-0.042-0.04-0.091-0.07-0.13-0.11c-0.042-0.029-0.083-0.06-0.122-0.1    c-0.07-0.06-0.148-0.13-0.231-0.211c0,0,0,0-0.008,0c-0.031-0.039-0.07-0.068-0.112-0.108c-0.039-0.041-0.067-0.081-0.109-0.121    l-0.119-0.119c0,0,0-0.011-0.011-0.011c-0.042-0.05-0.078-0.101-0.13-0.149c-0.042-0.04-0.07-0.091-0.109-0.141    c-0.021-0.02-0.052-0.051-0.07-0.08c-0.161-0.2-0.309-0.409-0.439-0.62c-0.021-0.04-0.042-0.07-0.062-0.11    c-0.01-0.009-0.01-0.009-0.021-0.02c0-0.01,0-0.01,0-0.02c0,0-0.011-0.01-0.011-0.021l-0.007-0.011    c-0.569-0.989-0.891-2.118-0.891-3.339c0-3.46,2.621-6.31,5.991-6.67v7.91l-1.07-0.86v-5.729c-2.229,0.739-3.83,2.85-3.83,5.33    c0,0.14,0,0.27,0.011,0.41v0.009c0.067,0.911,0.348,1.761,0.811,2.501c0.028,0.049,0.057,0.1,0.088,0.149    c0.07,0.1,0.141,0.2,0.21,0.3c0.081,0.11,0.169,0.211,0.26,0.319c0.028,0.031,0.06,0.071,0.091,0.101    c0.078,0.08,0.15,0.17,0.239,0.25c0.042,0.041,0.081,0.081,0.13,0.12c0,0,0,0.01,0.011,0.01c0.042,0.041,0.078,0.081,0.13,0.11    c0.049,0.05,0.099,0.09,0.15,0.131c0.049,0.029,0.088,0.069,0.13,0.1c0.239,0.179,0.499,0.319,0.769,0.46    c0.769,0.409,1.65,0.649,2.59,0.649c0.631,0,1.229-0.109,1.79-0.299c0.021,0,0.031-0.011,0.031-0.011    c0.159-0.061,0.32-0.12,0.471-0.19c0.779-0.36,1.471-0.89,2-1.539c0.05-0.061,0.091-0.101,0.141-0.16v0.02    C163.832,66.682,163.843,67.261,163.882,67.852z"
         id="path4464" /><path
         fill="#FFFFFF"
         d="M164.484,69.661c-0.094,0.07-0.192,0.141-0.291,0.2c-1.361,0.93-3.001,1.479-4.781,1.479    c-4.689,0-8.5-3.811-8.5-8.499c0-4.7,3.811-8.501,8.5-8.501c0.221,0,0.439,0.011,0.649,0.021v10.85l-1.07-0.86v-8.59    c-1.379,0.08-2.65,0.551-3.699,1.3c-0.102,0.07-0.19,0.141-0.281,0.211c-0.039,0.029-0.091,0.07-0.13,0.1    c-0.091,0.079-0.179,0.16-0.26,0.23c-0.049,0.04-0.081,0.079-0.13,0.11l-0.12,0.119c-0.028,0.04-0.07,0.07-0.101,0.11    c-0.029,0.03-0.057,0.06-0.078,0.09c-0.062,0.06-0.109,0.11-0.161,0.17c-0.06,0.07-0.109,0.141-0.171,0.2    c-0.039,0.06-0.078,0.109-0.13,0.17c0,0,0,0.011-0.01,0.011c-0.889,1.189-1.429,2.679-1.429,4.279v0.18    c0.01,0.061,0.01,0.11,0.01,0.16c0.011,0.06,0.011,0.119,0.011,0.181c0.01,0.06,0.01,0.119,0.021,0.179    c0.011,0.131,0.029,0.261,0.049,0.391c0.011,0.05,0.019,0.1,0.019,0.15c0.01,0.06,0.021,0.11,0.042,0.17    c0.021,0.119,0.049,0.23,0.081,0.35c0.779,3.07,3.559,5.34,6.879,5.34c0.73,0,1.442-0.108,2.11-0.319    c0.33-0.1,0.642-0.221,0.95-0.361c0.061-0.028,0.13-0.068,0.19-0.1c0.067-0.039,0.14-0.069,0.21-0.109    c0.06-0.03,0.119-0.07,0.18-0.1c0.041-0.03,0.08-0.051,0.13-0.081c0.041-0.029,0.08-0.06,0.119-0.09    c0.031-0.01,0.052-0.029,0.07-0.04c0.021-0.009,0.028-0.02,0.052-0.029c0.019-0.011,0.028-0.02,0.05-0.041    c0.028-0.02,0.067-0.039,0.099-0.068c0.119-0.091,0.23-0.181,0.353-0.271c0,0.009,0,0.009,0,0.009    C164.032,68.882,164.232,69.302,164.484,69.661z"
         id="path4466" /></g><path
       fill="#FFFFFF"
       d="M58.883,75.352"
       id="path4468" /><path
       fill="#FFFFFF"
       d="M193.075,115.158l-0.052,0.036v-0.104C193.039,115.114,193.058,115.132,193.075,115.158z"
       id="path4470" /><path
       fill="#FFFFFF"
       d="M193.075,115.158l-0.052,0.036v-0.104C193.039,115.114,193.058,115.132,193.075,115.158z"
       id="path4472" /><path
       fill="#FFFFFF"
       d="M98.661,111.404"
       id="path4474" /><defs
       id="defs4476"><filter
         id="Adobe_OpacityMaskFilter"
         filterUnits="userSpaceOnUse"
         x="117.666"
         y="87.739"
         width="32.61"
         height="7.341"><feColorMatrix
           type="matrix"
           values="1 0 0 0 0  0 1 0 0 0  0 0 1 0 0  0 0 0 1 0"
           id="feColorMatrix4479" /></filter></defs><mask
       maskUnits="userSpaceOnUse"
       x="117.666"
       y="87.739"
       width="32.61"
       height="7.341"
       id="SVGID_3_"><g
         filter="url(#Adobe_OpacityMaskFilter)"
         id="g4482"><linearGradient
           id="SVGID_1_"
           gradientUnits="userSpaceOnUse"
           x1="352.5859"
           y1="346.9707"
           x2="339.5193"
           y2="300.2781"
           gradientTransform="matrix(1 0 0 1 -211.0547 -224.6406)"><stop
             offset="0"
             style="stop-color:#8A8C8E"
             id="stop4485" /><stop
             offset="0.3966"
             style="stop-color:#727376"
             id="stop4487" /><stop
             offset="0.7187"
             style="stop-color:#565759"
             id="stop4489" /><stop
             offset="1"
             style="stop-color:#3D3D3E"
             id="stop4491" /></linearGradient><rect
           x="115.462"
           y="87.744"
           fill="url(#SVGID_1_)"
           width="35.723"
           height="10.52"
           id="rect4493" /></g></mask><g
       mask="url(#SVGID_3_)"
       id="g4495"><path
         fill="#FFFFFF"
         d="M130.172,90.276L130.172,90.276z"
         id="path4497" /><path
         fill="#FFFFFF"
         d="M150.275,93.141c0,0.649-0.031,1.29-0.081,1.939h-9.568l-15.861-0.011h-7.1l2.59-3.199h25.749    c-0.078-1.421-0.291-2.79-0.649-4.131h4.339C150.078,89.489,150.275,91.289,150.275,93.141z"
         id="path4499" /><path
         fill="#FFFFFF"
         d="M144.737,90.94h-23.73l2.559-3.17l0.029-0.03h20.521C144.396,88.789,144.617,89.84,144.737,90.94z"
         id="path4501" /></g><defs
       id="defs4503"><filter
         id="Adobe_OpacityMaskFilter_1_"
         filterUnits="userSpaceOnUse"
         x="99.344"
         y="106.59"
         width="48.801"
         height="11.99"><feColorMatrix
           type="matrix"
           values="1 0 0 0 0  0 1 0 0 0  0 0 1 0 0  0 0 0 1 0"
           id="feColorMatrix4506" /></filter></defs><mask
       maskUnits="userSpaceOnUse"
       x="99.344"
       y="106.59"
       width="48.801"
       height="11.99"
       id="SVGID_5_"><g
         filter="url(#Adobe_OpacityMaskFilter_1_)"
         id="g4509"><linearGradient
           id="SVGID_4_"
           gradientUnits="userSpaceOnUse"
           x1="334.7021"
           y1="318.0684"
           x2="334.8434"
           y2="354.2631"
           gradientTransform="matrix(1 0 0 1 -211.0547 -224.6406)"><stop
             offset="0"
             style="stop-color:#8A8C8E"
             id="stop4512" /><stop
             offset="0.2503"
             style="stop-color:#78797C"
             id="stop4514" /><stop
             offset="0.7775"
             style="stop-color:#434345"
             id="stop4516" /><stop
             offset="1"
             style="stop-color:#000000"
             id="stop4518" /></linearGradient><path
           fill="url(#SVGID_4_)"
           d="M108.313,106.59c3.902,4.755,9.817,7.784,16.448,7.784h20.002l3.382,4.188v0.019H99.344     c0.026-0.559,0.349-6.893,5.061-10.26c1.06-0.756,2.341-1.364,3.892-1.72C108.294,106.59,108.308,106.59,108.313,106.59z"
           id="path4520" /></g></mask><path
       mask="url(#SVGID_5_)"
       fill="#FFFFFF"
       d="M108.313,106.59c3.902,4.755,9.817,7.784,16.448,7.784h20.002l3.382,4.188v0.019   H99.344c0.026-0.559,0.349-6.893,5.061-10.26c1.06-0.756,2.341-1.364,3.892-1.72C108.294,106.59,108.308,106.59,108.313,106.59z"
       id="path4522" /><defs
       id="defs4524"><filter
         id="Adobe_OpacityMaskFilter_2_"
         filterUnits="userSpaceOnUse"
         x="44.651"
         y="113.62"
         width="12.252"
         height="9.903"><feColorMatrix
           type="matrix"
           values="1 0 0 0 0  0 1 0 0 0  0 0 1 0 0  0 0 0 1 0"
           id="feColorMatrix4527" /></filter></defs><mask
       maskUnits="userSpaceOnUse"
       x="44.651"
       y="113.62"
       width="12.252"
       height="9.903"
       id="SVGID_7_"><g
         filter="url(#Adobe_OpacityMaskFilter_2_)"
         id="g4530"><linearGradient
           id="SVGID_6_"
           gradientUnits="userSpaceOnUse"
           x1="261.835"
           y1="332.1504"
           x2="261.835"
           y2="350.2403"
           gradientTransform="matrix(1 0 0 1 -211.0547 -224.6406)"><stop
             offset="0"
             style="stop-color:#8A8C8E"
             id="stop4533" /><stop
             offset="0.3576"
             style="stop-color:#67686B"
             id="stop4535" /><stop
             offset="0.7874"
             style="stop-color:#363637"
             id="stop4537" /><stop
             offset="1"
             style="stop-color:#000000"
             id="stop4539" /></linearGradient><rect
           x="43.14"
           y="113.62"
           fill="url(#SVGID_6_)"
           width="15.279"
           height="11.959"
           id="rect4541" /></g></mask><g
       mask="url(#SVGID_7_)"
       id="g4543"><polygon
         fill="#FFFFFF"
         points="49.982,119.227 53.306,116.535 53.306,113.62 49.982,113.62   "
         id="polygon4545" /><polygon
         fill="#FFFFFF"
         points="54.27,115.756 56.904,113.62 54.27,113.62   "
         id="polygon4547" /><polygon
         fill="#FFFFFF"
         points="44.651,123.523 44.667,123.523 48.86,120.136 48.86,113.62 44.651,113.62   "
         id="polygon4549" /></g><path
       fill="#FFFFFF"
       d="M54.27,113.62h2.637V91.383c-1.647,2.493-2.626,5.487-2.637,8.691V113.62z"
       id="path4551" /><line
       fill="none"
       x1="149.709"
       y1="94.745"
       x2="149.694"
       y2="94.745"
       id="line4553" /><g
       id="g4555"><path
         fill="#FFFFFF"
         d="M124.833,67.684c-14.061,0-25.455,11.396-25.455,25.458c0,5.304,1.634,10.232,4.403,14.309    c0.213,0.304,0.411,0.582,0.619,0.87c1.07-0.751,2.348-1.356,3.892-1.728c0,0,0.016,0,0.026,0    c-0.275-0.33-0.551-0.688-0.803-1.042c-0.093-0.094-0.158-0.197-0.226-0.304c-0.039-0.052-0.078-0.094-0.093-0.146    c-0.037-0.052-0.062-0.094-0.091-0.133c-0.054-0.062-0.106-0.146-0.146-0.21c-0.091-0.13-0.171-0.266-0.252-0.396    c-0.078-0.119-0.156-0.252-0.236-0.384c-0.104-0.172-0.21-0.344-0.304-0.527c-0.12-0.195-0.224-0.408-0.328-0.619    c-0.106-0.185-0.197-0.382-0.291-0.595c-0.437-0.909-0.805-1.845-1.106-2.821c-0.634-2.006-0.964-4.129-0.964-6.316    c0-9.945,6.82-18.28,16.024-20.615c0.33-0.093,0.686-0.17,1.026-0.236c0.174-0.041,0.346-0.065,0.53-0.105    c0.146-0.026,0.291-0.052,0.437-0.065c0.382-0.064,0.764-0.118,1.146-0.157c0.185-0.014,0.372-0.025,0.543-0.038    c0.185-0.016,0.366-0.026,0.553-0.041c0.159-0.014,0.314-0.014,0.476-0.014c0.185-0.014,0.369-0.014,0.553-0.014    c4.801,0,9.233,1.597,12.795,4.286c0.013,0.014,0.026,0.024,0.052,0.024c0.159,0.134,0.33,0.267,0.489,0.385    c0.197,0.171,0.408,0.33,0.592,0.501c0.187,0.156,0.356,0.315,0.527,0.476c0.093,0.079,0.185,0.17,0.278,0.264    c0.104,0.094,0.21,0.197,0.317,0.304l0.354,0.354c0.106,0.12,0.223,0.238,0.33,0.356c0.236,0.265,0.462,0.527,0.686,0.791    c0.106,0.133,0.226,0.265,0.317,0.409c0.21,0.265,0.408,0.526,0.621,0.815c1.476,2.085,2.585,4.434,3.232,6.966h4.339    C147.23,76.271,137.034,67.684,124.833,67.684z"
         id="path4557" /><path
         fill="#FFFFFF"
         d="M124.758,108.98h15.634l-2.127-2.638h-22.179C118.57,107.998,121.557,108.962,124.758,108.98z"
         id="path4559" /><path
         fill="#FFFFFF"
         d="M144.116,87.744C141.77,79.252,134.001,73,124.753,73c-3.64,0-7.041,0.964-9.981,2.664    c-0.026,0.013-0.042,0.025-0.055,0.025c-0.026,0.014-0.039,0.026-0.065,0.026c0,0.013-0.016,0.024-0.026,0.024    c-0.042,0.015-0.052,0.026-0.078,0.04c-0.106,0.054-0.213,0.118-0.317,0.187c-0.647,0.396-1.281,0.844-1.873,1.316    c-0.081,0.066-0.159,0.146-0.252,0.198c-0.13,0.118-0.275,0.236-0.408,0.343c-0.146,0.132-0.304,0.265-0.434,0.396    c-0.016,0.015-0.026,0.015-0.026,0.025c-0.135,0.106-0.252,0.226-0.385,0.344c-0.12,0.12-0.223,0.225-0.33,0.345    c-0.117,0.104-0.236,0.224-0.343,0.343c-0.013,0-0.013,0.013-0.013,0.026c-0.21,0.223-0.436,0.447-0.634,0.686    c-0.104,0.118-0.197,0.225-0.291,0.343c-0.104,0.133-0.21,0.265-0.317,0.396c-0.062,0.092-0.13,0.171-0.182,0.25    c-0.12,0.146-0.239,0.291-0.333,0.448c-0.117,0.159-0.224,0.314-0.328,0.463c-0.104,0.157-0.213,0.314-0.317,0.474    c-0.093,0.173-0.187,0.316-0.291,0.489c-0.093,0.146-0.171,0.276-0.249,0.436c-0.078,0.146-0.161,0.29-0.239,0.436    c-0.078,0.146-0.146,0.29-0.224,0.448c-0.078,0.146-0.146,0.291-0.223,0.448c-0.146,0.306-0.265,0.606-0.397,0.924    c-0.065,0.157-0.133,0.316-0.185,0.462c-0.065,0.157-0.12,0.33-0.171,0.487c-0.052,0.131-0.094,0.264-0.133,0.396    c-0.026,0.053-0.039,0.104-0.054,0.157c-0.037,0.132-0.091,0.276-0.13,0.409c-0.078,0.288-0.171,0.595-0.239,0.895    c-0.026,0.12-0.052,0.239-0.078,0.354c-0.042,0.159-0.068,0.306-0.094,0.463c-0.039,0.146-0.065,0.304-0.094,0.462    c-0.052,0.29-0.104,0.594-0.143,0.911c-0.039,0.316-0.065,0.646-0.094,0.977c-0.026,0.343-0.054,0.699-0.054,1.055    c0,0,0,0,0,0.015c-0.011,0.173-0.011,0.343-0.011,0.515c0,5.062,1.886,9.709,4.999,13.24c0,0.016,0.026,0.041,0.039,0.055    l0.106,0.104l0,0c0.151,0.18,0.317,0.356,0.483,0.53c0.112,0.109,0.224,0.224,0.322,0.33c0.441,0.441,0.909,0.857,1.382,1.255    c3.468,2.884,7.919,4.621,12.762,4.647h19.1l-2.686-3.323h-16.03c-0.021,0-0.029,0-0.044-0.01c-0.028,0.01-0.06,0.01-0.085,0.01    h-0.102c-0.054,0-0.104-0.01-0.153-0.021c-0.562-0.008-1.117-0.041-1.671-0.111c-0.018,0-0.023-0.008-0.049-0.008    c-0.561-0.065-1.112-0.156-1.663-0.286c-0.042-0.008-0.094-0.019-0.146-0.026c-0.592-0.135-1.18-0.306-1.746-0.509    c-1.236-0.413-2.416-0.979-3.51-1.657c-0.483-0.299-0.958-0.621-1.408-0.972h-0.002c-0.156-0.13-0.327-0.263-0.483-0.393    c-1.951-1.621-3.52-3.652-4.588-5.999c-0.213-0.465-0.397-0.938-0.582-1.397c-0.013-0.028-0.026-0.055-0.026-0.094    c-0.579-1.687-0.883-3.495-0.883-5.368c0-3.046,0.805-5.895,2.216-8.349c-0.226,0.367-0.424,0.737-0.608,1.106    c0.475-1.003,1.057-1.951,1.714-2.822c0.094-0.132,0.185-0.251,0.291-0.384c0.117-0.157,0.252-0.314,0.369-0.461    c0.119-0.133,0.226-0.264,0.345-0.383c0.011-0.014,0.011-0.026,0.026-0.039c0.115-0.133,0.25-0.264,0.369-0.396    c0.234-0.236,0.486-0.476,0.738-0.712c0.104-0.094,0.208-0.173,0.301-0.264c0.317-0.265,0.647-0.527,0.977-0.778    c0.278-0.211,0.566-0.423,0.883-0.619c0.146-0.105,0.307-0.197,0.449-0.291c2.216-1.357,4.762-2.202,7.49-2.412h0.016    c0.421-0.026,0.816-0.039,1.239-0.039c7.438,0,13.743,4.8,15.975,11.485L144.116,87.744L144.116,87.744z"
         id="path4561" /></g><defs
       id="defs4563"><filter
         id="Adobe_OpacityMaskFilter_3_"
         filterUnits="userSpaceOnUse"
         x="224.42"
         y="106.59"
         width="48.801"
         height="11.99"><feColorMatrix
           type="matrix"
           values="1 0 0 0 0  0 1 0 0 0  0 0 1 0 0  0 0 0 1 0"
           id="feColorMatrix4566" /></filter></defs><mask
       maskUnits="userSpaceOnUse"
       x="224.42"
       y="106.59"
       width="48.801"
       height="11.99"
       id="SVGID_9_"><g
         filter="url(#Adobe_OpacityMaskFilter_3_)"
         id="g4569"><linearGradient
           id="SVGID_8_"
           gradientUnits="userSpaceOnUse"
           x1="459.7773"
           y1="318.0693"
           x2="459.9185"
           y2="354.261"
           gradientTransform="matrix(1 0 0 1 -211.0547 -224.6406)"><stop
             offset="0"
             style="stop-color:#8A8C8E"
             id="stop4572" /><stop
             offset="0.2503"
             style="stop-color:#78797C"
             id="stop4574" /><stop
             offset="0.7775"
             style="stop-color:#434345"
             id="stop4576" /><stop
             offset="1"
             style="stop-color:#000000"
             id="stop4578" /></linearGradient><path
           fill="url(#SVGID_8_)"
           d="M233.391,106.59c3.9,4.755,9.815,7.784,16.445,7.784h20.002l3.383,4.188v0.019H224.42     c0.023-0.559,0.349-6.893,5.062-10.26c1.062-0.756,2.341-1.364,3.892-1.72C233.373,106.59,233.383,106.59,233.391,106.59z"
           id="path4580" /></g></mask><path
       mask="url(#SVGID_9_)"
       fill="#FFFFFF"
       d="M233.391,106.59c3.9,4.755,9.815,7.784,16.445,7.784h20.002l3.383,4.188v0.019   H224.42c0.023-0.559,0.349-6.893,5.062-10.26c1.062-0.756,2.341-1.364,3.892-1.72C233.373,106.59,233.383,106.59,233.391,106.59z"
       id="path4582" /><g
       id="g4584"><path
         fill="#FFFFFF"
         d="M274.774,87.739h-0.005c-2.469-11.473-12.66-20.058-24.857-20.058c-14.061,0-25.458,11.397-25.458,25.459    c0,5.302,1.637,10.233,4.406,14.307c0.21,0.307,0.407,0.582,0.618,0.873c1.067-0.753,2.349-1.356,3.892-1.728c0,0,0.013,0,0.026,0    c-0.275-0.33-0.554-0.688-0.806-1.042c-0.091-0.094-0.156-0.197-0.224-0.304c-0.041-0.055-0.08-0.094-0.094-0.146    c-0.041-0.052-0.064-0.094-0.093-0.133c-0.055-0.064-0.104-0.146-0.146-0.21c-0.094-0.133-0.175-0.266-0.25-0.396    c-0.08-0.119-0.158-0.252-0.238-0.384c-0.104-0.172-0.211-0.346-0.302-0.53c-0.119-0.195-0.227-0.405-0.333-0.618    c-0.104-0.185-0.194-0.382-0.291-0.593c-0.436-0.909-0.803-1.847-1.104-2.821c-0.634-2.007-0.964-4.129-0.964-6.318    c0-9.945,6.819-18.279,16.024-20.615c0.33-0.091,0.686-0.17,1.028-0.236c0.172-0.04,0.344-0.064,0.527-0.104    c0.144-0.026,0.289-0.053,0.435-0.065c0.384-0.063,0.766-0.118,1.148-0.157c0.184-0.014,0.368-0.025,0.54-0.039    c0.185-0.016,0.369-0.025,0.554-0.04c0.158-0.013,0.316-0.013,0.475-0.013c0.188-0.015,0.369-0.015,0.557-0.015    c4.801,0,9.23,1.597,12.792,4.285c0.016,0.015,0.029,0.026,0.055,0.026c0.158,0.134,0.33,0.265,0.488,0.383    c0.197,0.172,0.408,0.33,0.593,0.502c0.187,0.157,0.355,0.315,0.527,0.476c0.094,0.079,0.187,0.171,0.275,0.265    c0.106,0.094,0.213,0.197,0.316,0.303l0.356,0.355c0.104,0.118,0.224,0.236,0.33,0.356c0.236,0.264,0.46,0.526,0.686,0.791    c0.104,0.131,0.224,0.265,0.317,0.409c0.21,0.264,0.407,0.524,0.618,0.815c1.479,2.085,2.585,4.433,3.231,6.964h0.006    c0.358,1.34,0.566,2.707,0.646,4.126h-25.751l-2.591,3.199h7.101l15.86,0.011h9.569c0.052-0.649,0.08-1.29,0.08-1.939    C275.354,91.289,275.153,89.489,274.774,87.739z"
         id="path4586" /><path
         fill="#FFFFFF"
         d="M265.471,108.98l-2.13-2.638h-22.177c2.483,1.655,5.469,2.619,8.672,2.638H265.471z"
         id="path4588" /><path
         fill="#FFFFFF"
         d="M250.218,109.941c-0.021,0-0.025,0-0.041-0.011c-0.028,0.011-0.06,0.011-0.089,0.011h-0.101    c-0.053,0-0.104-0.011-0.151-0.021c-0.561-0.008-1.119-0.042-1.67-0.109c-0.019,0-0.023-0.008-0.052-0.008    c-0.562-0.067-1.109-0.158-1.66-0.288c-0.042-0.008-0.094-0.019-0.146-0.026c-0.596-0.135-1.18-0.304-1.746-0.509    c-1.239-0.413-2.416-0.979-3.513-1.66c-0.483-0.297-0.959-0.621-1.405-0.967h-0.003c-0.158-0.133-0.327-0.265-0.483-0.395    c-1.951-1.621-3.522-3.653-4.59-5.999c-0.211-0.465-0.397-0.938-0.582-1.397c-0.014-0.026-0.023-0.055-0.023-0.094    c-0.58-1.688-0.886-3.495-0.886-5.367c0-3.048,0.805-5.896,2.218-8.349c-0.226,0.367-0.423,0.736-0.607,1.106    c0.476-1.003,1.058-1.952,1.715-2.822c0.094-0.133,0.187-0.252,0.291-0.384c0.116-0.158,0.252-0.315,0.368-0.462    c0.12-0.132,0.227-0.264,0.344-0.382c0.013-0.015,0.013-0.026,0.028-0.04c0.114-0.133,0.249-0.265,0.366-0.396    c0.236-0.236,0.488-0.475,0.738-0.712c0.106-0.093,0.213-0.172,0.304-0.264c0.316-0.265,0.645-0.527,0.977-0.778    c0.278-0.212,0.566-0.424,0.886-0.619c0.146-0.104,0.302-0.196,0.447-0.29c2.216-1.357,4.765-2.203,7.492-2.413h0.011    c0.424-0.026,0.818-0.039,1.242-0.039c7.435,0,13.74,4.798,15.972,11.481h-17.193l-0.028,0.03l-2.562,3.169h23.729    c-0.122-1.099-0.34-2.149-0.618-3.199h-0.005C266.846,79.249,259.077,73,249.834,73c-3.643,0-7.043,0.964-9.984,2.664    c-0.026,0.013-0.042,0.025-0.055,0.025c-0.025,0.012-0.039,0.026-0.064,0.026c0,0.013-0.016,0.024-0.026,0.024    c-0.039,0.015-0.052,0.026-0.078,0.04c-0.104,0.054-0.21,0.118-0.314,0.187c-0.646,0.396-1.28,0.844-1.873,1.316    c-0.08,0.065-0.158,0.146-0.252,0.198c-0.133,0.118-0.275,0.236-0.408,0.343c-0.145,0.132-0.304,0.265-0.436,0.396    c-0.016,0.015-0.026,0.015-0.026,0.025c-0.133,0.106-0.252,0.226-0.382,0.344c-0.119,0.12-0.227,0.225-0.33,0.345    c-0.119,0.104-0.236,0.224-0.343,0.343c-0.013,0-0.013,0.013-0.013,0.026c-0.211,0.223-0.437,0.447-0.637,0.686    c-0.104,0.118-0.197,0.225-0.289,0.343c-0.104,0.133-0.21,0.265-0.316,0.396c-0.065,0.092-0.133,0.171-0.185,0.25    c-0.119,0.146-0.236,0.291-0.33,0.448c-0.117,0.159-0.224,0.314-0.33,0.463c-0.104,0.157-0.21,0.314-0.314,0.474    c-0.093,0.173-0.187,0.316-0.291,0.489c-0.093,0.146-0.171,0.276-0.249,0.436c-0.08,0.146-0.161,0.29-0.239,0.436    c-0.077,0.146-0.146,0.29-0.224,0.448c-0.077,0.146-0.147,0.291-0.226,0.448c-0.146,0.306-0.263,0.606-0.395,0.924    c-0.067,0.157-0.133,0.316-0.188,0.462c-0.064,0.157-0.119,0.33-0.171,0.487c-0.053,0.131-0.094,0.264-0.133,0.396    c-0.026,0.053-0.039,0.104-0.052,0.157c-0.039,0.132-0.094,0.276-0.136,0.409c-0.077,0.288-0.169,0.595-0.233,0.895    c-0.026,0.12-0.055,0.239-0.081,0.354c-0.038,0.159-0.064,0.306-0.093,0.463c-0.039,0.146-0.062,0.304-0.091,0.462    c-0.055,0.29-0.107,0.594-0.146,0.911c-0.042,0.316-0.065,0.646-0.094,0.976c-0.026,0.344-0.055,0.7-0.055,1.056c0,0,0,0,0,0.015    c-0.013,0.173-0.013,0.343-0.013,0.515c0,5.062,1.886,9.709,4.998,13.24c0,0.016,0.026,0.041,0.039,0.055l0.104,0.104    c0.153,0.18,0.32,0.356,0.486,0.53c0.111,0.109,0.224,0.224,0.324,0.33c0.439,0.441,0.907,0.857,1.383,1.255    c3.466,2.884,7.916,4.621,12.759,4.647h19.101l-2.687-3.323h-16.03V109.941z"
         id="path4590" /></g><path
       fill="#FFFFFF"
       d="M67.849,115.194l0.052-0.036c-0.018-0.026-0.034-0.044-0.052-0.067V115.194z"
       id="path4592" /><path
       fill="#FFFFFF"
       d="M67.849,115.194l0.052-0.036c-0.018-0.026-0.034-0.044-0.052-0.067V115.194z"
       id="path4594" /><path
       fill="#FFFFFF"
       d="M90.34,100.074c0,5.222-1.977,9.971-5.235,13.546h-4.749c4.089-3.089,6.726-7.968,6.726-13.48   c0-0.424-0.026-0.818-0.052-1.239v-0.014c-0.197-2.744-1.055-5.29-2.413-7.505c-0.091-0.16-0.198-0.317-0.289-0.463   c-0.2-0.305-0.411-0.605-0.621-0.885c-0.252-0.329-0.517-0.658-0.777-0.978c-0.093-0.091-0.187-0.196-0.28-0.303   c-0.224-0.251-0.458-0.5-0.712-0.739c-0.117-0.131-0.263-0.249-0.395-0.369c-0.013-0.013-0.013-0.025-0.039-0.025   c-0.117-0.117-0.236-0.235-0.382-0.344c-0.146-0.131-0.304-0.264-0.462-0.382c-0.132-0.104-0.25-0.197-0.369-0.291   c-0.556-0.409-1.123-0.776-1.73-1.106c-0.301-0.173-0.618-0.344-0.935-0.501c-2.242-1.096-4.775-1.715-7.425-1.715   c-1.886,0-3.708,0.304-5.396,0.87c-0.026,0.013-0.065,0.026-0.091,0.039c-0.462,0.187-0.938,0.37-1.398,0.581   c-2.349,1.067-4.396,2.65-6.017,4.604c-0.13,0.157-0.275,0.328-0.395,0.486c-0.358,0.448-0.676,0.924-0.977,1.412   c-0.673,1.094-1.242,2.28-1.663,3.521c-0.197,0.565-0.369,1.146-0.515,1.741c0,0.052-0.013,0.103-0.026,0.145   c-0.12,0.556-0.213,1.106-0.275,1.674c0,0.028-0.016,0.028-0.016,0.055c-0.065,0.54-0.104,1.106-0.119,1.662   c0,0.053-0.011,0.104-0.011,0.156v0.106c0,0.023,0,0.052,0.011,0.078c-0.011,0.026-0.011,0.026-0.011,0.039v13.164h-3.325v-13.541   c0.026-4.84,1.767-9.312,4.655-12.78c0.395-0.476,0.816-0.95,1.252-1.387c0.106-0.104,0.226-0.211,0.333-0.328   c0.185-0.173,0.354-0.345,0.541-0.488l0.104-0.104c0.015-0.014,0.026-0.04,0.052-0.04c3.536-3.125,8.191-5.012,13.284-5.012   c0.171,0,0.33,0,0.501,0.014c0.013,0,0.013,0,0.013,0c0.356,0.014,0.712,0.025,1.068,0.054c0.33,0.025,0.645,0.053,0.977,0.104   c0.301,0.026,0.618,0.079,0.909,0.133c0.158,0.025,0.304,0.053,0.462,0.093c0.158,0.026,0.304,0.054,0.462,0.093   c0.12,0.025,0.236,0.053,0.354,0.079c0.306,0.078,0.608,0.157,0.899,0.236c0.13,0.054,0.275,0.094,0.421,0.133   c0.052,0.014,0.104,0.04,0.145,0.053c0.146,0.04,0.265,0.079,0.411,0.133c0.156,0.053,0.314,0.118,0.473,0.171   c0.159,0.065,0.317,0.12,0.479,0.187c0.314,0.132,0.618,0.264,0.909,0.407c0.171,0.065,0.314,0.147,0.462,0.212   c0.156,0.078,0.301,0.157,0.447,0.236s0.291,0.146,0.434,0.238c0.158,0.079,0.291,0.157,0.436,0.249   c0.172,0.094,0.33,0.186,0.489,0.291c0.158,0.104,0.317,0.212,0.475,0.315c0.156,0.104,0.304,0.211,0.463,0.316   c0.156,0.104,0.314,0.225,0.459,0.343c0.081,0.053,0.159,0.118,0.236,0.186c0.148,0.094,0.278,0.212,0.398,0.315   c0.132,0.094,0.236,0.186,0.355,0.291c0.224,0.211,0.463,0.422,0.686,0.633c0.013,0,0.013,0,0.026,0.015   c0.104,0.118,0.224,0.225,0.343,0.344c0.119,0.104,0.223,0.224,0.343,0.342c0.12,0.119,0.239,0.237,0.343,0.37   c0.016,0.013,0.016,0.013,0.026,0.026c0.135,0.144,0.265,0.304,0.395,0.435c0.12,0.146,0.229,0.291,0.343,0.422   c0.054,0.08,0.135,0.159,0.197,0.251c0.488,0.594,0.925,1.229,1.32,1.873c0.078,0.104,0.132,0.211,0.197,0.317   c0.016,0.024,0.016,0.039,0.042,0.078c0,0.014,0,0.025,0.011,0.025c0.016,0.026,0.016,0.039,0.026,0.065   c0.016,0.013,0.028,0.024,0.042,0.053C89.366,93.006,90.34,96.422,90.34,100.074z"
       id="path4596" /><defs
       id="defs4598"><filter
         id="Adobe_OpacityMaskFilter_4_"
         filterUnits="userSpaceOnUse"
         x="68.205"
         y="92.979"
         width="23.59"
         height="32.68"><feColorMatrix
           type="matrix"
           values="1 0 0 0 0  0 1 0 0 0  0 0 1 0 0  0 0 0 1 0"
           id="feColorMatrix4601" /></filter></defs><mask
       maskUnits="userSpaceOnUse"
       x="68.205"
       y="92.979"
       width="23.59"
       height="32.68"
       id="SVGID_11_"><g
         filter="url(#Adobe_OpacityMaskFilter_4_)"
         id="g4604"><linearGradient
           id="SVGID_10_"
           gradientUnits="userSpaceOnUse"
           x1="318.4023"
           y1="325.0977"
           x2="265.1687"
           y2="346.1472"
           gradientTransform="matrix(1 0 0 1 -211.0547 -224.6406)"><stop
             offset="0"
             style="stop-color:#8A8C8E"
             id="stop4607" /><stop
             offset="0.2386"
             style="stop-color:#77797B"
             id="stop4609" /><stop
             offset="0.7482"
             style="stop-color:#4E4E50"
             id="stop4611" /><stop
             offset="1"
             style="stop-color:#383839"
             id="stop4613" /></linearGradient><path
           fill="url(#SVGID_10_)"
           d="M76.713,113.563l0.117-0.268l5.108-11.188l-7.747-12.842l-10.223,2.058L62.29,106.25     c0,0-3.765,22.753-3.406,23.244c0.354,0.496,13.988,10.883,14.811,10.556c0.824-0.33,19.124-8.083,19.124-8.083l1.979-18.403     H76.713z"
           id="path4615" /></g></mask><g
       mask="url(#SVGID_11_)"
       id="g4617"><path
         fill="#FFFFFF"
         d="M85.107,113.62c-3.232,3.56-7.721,5.949-12.761,6.487v-4.63l0.021-19.129l3.19,2.58v17.222    c1.741-0.582,3.359-1.452,4.801-2.53H85.107L85.107,113.62z"
         id="path4619" /><path
         fill="#FFFFFF"
         d="M91.795,113.62c-4.5,7.21-12.489,12.039-21.628,12.039c-0.67,0-1.312-0.021-1.961-0.08v-32.6l3.211,2.601    v25.798c4.141-0.229,7.95-1.64,11.13-3.89c0.281-0.2,0.551-0.41,0.821-0.631c0.13-0.089,0.271-0.188,0.39-0.31    c0.281-0.229,0.541-0.449,0.79-0.69c0.14-0.102,0.26-0.219,0.369-0.33c0.12-0.117,0.239-0.229,0.359-0.369    c0.111-0.088,0.213-0.189,0.301-0.299c0.099-0.091,0.192-0.189,0.27-0.28c0.161-0.169,0.312-0.341,0.47-0.522    c0.13-0.148,0.252-0.288,0.372-0.437H91.795z"
         id="path4621" /></g><path
       fill="#FFFFFF"
       d="M95.671,100.152c0,4.946-1.439,9.55-3.879,13.468h-5.105c0.055-0.055,0.094-0.106,0.135-0.158   c0.13-0.172,0.26-0.33,0.379-0.504c0.016-0.011,0.016-0.023,0.026-0.039c2.707-3.572,4.302-8.018,4.302-12.829v-0.559   c-0.016-0.156-0.016-0.327-0.026-0.485c-0.016-0.172-0.016-0.356-0.026-0.541c-0.026-0.187-0.042-0.355-0.054-0.541   c-0.039-0.384-0.091-0.777-0.143-1.16c-0.026-0.146-0.055-0.29-0.081-0.437c-0.026-0.185-0.065-0.354-0.106-0.526   c-0.065-0.344-0.146-0.698-0.236-1.028C88.521,85.58,80.161,78.749,70.19,78.749c-2.203,0-4.329,0.328-6.334,0.963   c-0.977,0.304-1.922,0.674-2.834,1.106c-0.197,0.094-0.397,0.198-0.595,0.289c-0.21,0.105-0.408,0.227-0.619,0.33   c-0.187,0.105-0.353,0.198-0.527,0.317c-0.132,0.064-0.262,0.146-0.397,0.235c-0.117,0.079-0.25,0.158-0.382,0.237   c-0.065,0.052-0.143,0.093-0.21,0.146c-0.039,0.026-0.094,0.065-0.132,0.094c-0.055,0.024-0.106,0.064-0.146,0.092   c-0.106,0.079-0.21,0.146-0.314,0.227c-0.343,0.264-0.702,0.525-1.029,0.804c-4.775,3.918-7.81,9.854-7.81,16.488v13.543h-4.209   V74.604c0.275,0.015,2.006,0.094,4.077,0.767c2.083,0.674,4.513,1.939,6.199,4.301c0.291-0.21,0.579-0.409,0.87-0.619   c4.089-2.784,9.036-4.419,14.364-4.419C84.25,74.631,95.671,86.055,95.671,100.152z"
       id="path4623" /><path
       fill="#FFFFFF"
       d="M183.995,75.352"
       id="path4625" /><defs
       id="defs4627"><filter
         id="Adobe_OpacityMaskFilter_5_"
         filterUnits="userSpaceOnUse"
         x="169.767"
         y="113.62"
         width="12.252"
         height="9.903"><feColorMatrix
           type="matrix"
           values="1 0 0 0 0  0 1 0 0 0  0 0 1 0 0  0 0 0 1 0"
           id="feColorMatrix4630" /></filter></defs><mask
       maskUnits="userSpaceOnUse"
       x="169.767"
       y="113.62"
       width="12.252"
       height="9.903"
       id="SVGID_13_"><g
         filter="url(#Adobe_OpacityMaskFilter_5_)"
         id="g4633"><linearGradient
           id="SVGID_12_"
           gradientUnits="userSpaceOnUse"
           x1="386.9434"
           y1="332.1504"
           x2="386.9434"
           y2="350.2403"
           gradientTransform="matrix(1 0 0 1 -211.0547 -224.6406)"><stop
             offset="0"
             style="stop-color:#8A8C8E"
             id="stop4636" /><stop
             offset="0.3576"
             style="stop-color:#67686B"
             id="stop4638" /><stop
             offset="0.7874"
             style="stop-color:#363637"
             id="stop4640" /><stop
             offset="1"
             style="stop-color:#000000"
             id="stop4642" /></linearGradient><rect
           x="168.249"
           y="113.62"
           fill="url(#SVGID_12_)"
           width="15.278"
           height="11.959"
           id="rect4644" /></g></mask><g
       mask="url(#SVGID_13_)"
       id="g4646"><polygon
         fill="#FFFFFF"
         points="175.092,119.227 178.417,116.535 178.417,113.62 175.092,113.62   "
         id="polygon4648" /><polygon
         fill="#FFFFFF"
         points="179.379,115.756 182.019,113.62 179.379,113.62   "
         id="polygon4650" /><polygon
         fill="#FFFFFF"
         points="169.767,123.523 169.776,123.523 173.973,120.136 173.973,113.62 169.767,113.62   "
         id="polygon4652" /></g><path
       fill="#FFFFFF"
       d="M179.379,113.62h2.64V91.383c-1.647,2.493-2.624,5.487-2.64,8.691V113.62z"
       id="path4654" /><path
       fill="#FFFFFF"
       d="M192.961,115.194l0.05-0.036c-0.016-0.026-0.034-0.044-0.05-0.067V115.194z"
       id="path4656" /><path
       fill="#FFFFFF"
       d="M192.961,115.194l0.05-0.036c-0.016-0.026-0.034-0.044-0.05-0.067V115.194z"
       id="path4658" /><path
       fill="#FFFFFF"
       d="M215.454,100.074c0,5.222-1.979,9.971-5.234,13.546h-4.752c4.092-3.089,6.731-7.968,6.731-13.48   c0-0.424-0.028-0.818-0.055-1.239v-0.014c-0.197-2.744-1.055-5.29-2.416-7.505c-0.091-0.16-0.197-0.317-0.288-0.463   c-0.195-0.305-0.408-0.605-0.618-0.885c-0.253-0.329-0.518-0.658-0.78-0.978c-0.091-0.091-0.187-0.196-0.275-0.303   c-0.223-0.251-0.462-0.5-0.711-0.739c-0.12-0.131-0.269-0.249-0.398-0.369c-0.013-0.013-0.013-0.025-0.038-0.025   c-0.117-0.117-0.237-0.235-0.382-0.344c-0.146-0.131-0.302-0.264-0.463-0.382c-0.13-0.104-0.249-0.197-0.366-0.291   c-0.556-0.409-1.122-0.776-1.73-1.106c-0.304-0.173-0.618-0.344-0.938-0.501c-2.242-1.096-4.775-1.715-7.428-1.715   c-1.884,0-3.705,0.304-5.396,0.87c-0.023,0.013-0.062,0.026-0.091,0.039c-0.46,0.187-0.936,0.37-1.397,0.581   c-2.349,1.067-4.394,2.65-6.015,4.604c-0.13,0.157-0.275,0.328-0.397,0.486c-0.354,0.448-0.67,0.924-0.977,1.412   c-0.673,1.094-1.237,2.28-1.663,3.521c-0.194,0.565-0.366,1.146-0.515,1.741c0,0.052-0.013,0.103-0.025,0.145   c-0.117,0.556-0.208,1.106-0.275,1.674c0,0.028-0.011,0.028-0.011,0.055c-0.067,0.54-0.106,1.106-0.122,1.662   c0,0.053-0.013,0.104-0.013,0.156v0.106c0,0.023,0,0.052,0.013,0.078c-0.013,0.026-0.013,0.026-0.013,0.039v13.164h-3.325v-13.541   c0.025-4.84,1.769-9.312,4.655-12.78c0.397-0.476,0.818-0.95,1.255-1.387c0.104-0.104,0.226-0.211,0.33-0.328   c0.187-0.173,0.355-0.345,0.54-0.488l0.106-0.104c0.013-0.014,0.023-0.04,0.05-0.04c3.538-3.125,8.193-5.012,13.283-5.012   c0.172,0,0.33,0,0.502,0.014c0.015,0,0.015,0,0.015,0c0.354,0.014,0.71,0.025,1.068,0.054c0.327,0.025,0.645,0.053,0.977,0.104   c0.302,0.026,0.618,0.079,0.909,0.133c0.156,0.025,0.305,0.053,0.463,0.093c0.155,0.026,0.304,0.054,0.46,0.093   c0.119,0.025,0.236,0.053,0.355,0.079c0.304,0.078,0.605,0.157,0.896,0.236c0.133,0.054,0.275,0.094,0.424,0.133   c0.052,0.014,0.104,0.04,0.143,0.053c0.146,0.04,0.265,0.079,0.41,0.133c0.159,0.053,0.314,0.118,0.476,0.171   c0.156,0.065,0.317,0.12,0.476,0.187c0.314,0.132,0.618,0.264,0.909,0.407c0.172,0.065,0.314,0.147,0.463,0.212   c0.158,0.078,0.304,0.157,0.449,0.236s0.288,0.146,0.434,0.238c0.156,0.079,0.291,0.157,0.437,0.249   c0.172,0.094,0.33,0.186,0.486,0.291c0.158,0.104,0.316,0.212,0.478,0.315c0.161,0.104,0.304,0.211,0.463,0.316   c0.158,0.104,0.314,0.225,0.462,0.343c0.078,0.053,0.156,0.118,0.236,0.186c0.146,0.094,0.275,0.212,0.396,0.315   c0.132,0.094,0.238,0.186,0.358,0.291c0.224,0.211,0.46,0.422,0.686,0.633c0.011,0,0.011,0,0.023,0.015   c0.104,0.118,0.226,0.225,0.343,0.344c0.12,0.104,0.224,0.224,0.343,0.342c0.12,0.119,0.239,0.237,0.344,0.37   c0.015,0.013,0.015,0.013,0.028,0.026c0.13,0.144,0.262,0.304,0.395,0.435c0.12,0.146,0.227,0.291,0.346,0.422   c0.052,0.08,0.133,0.159,0.195,0.251c0.488,0.594,0.925,1.229,1.319,1.873c0.078,0.104,0.133,0.211,0.194,0.317   c0.016,0.024,0.016,0.039,0.042,0.078c0,0.014,0,0.025,0.013,0.025c0.016,0.026,0.016,0.039,0.026,0.065   c0.016,0.013,0.023,0.024,0.039,0.053C214.48,93.006,215.454,96.422,215.454,100.074z"
       id="path4660" /><defs
       id="defs4662"><filter
         id="Adobe_OpacityMaskFilter_6_"
         filterUnits="userSpaceOnUse"
         x="193.325"
         y="92.971"
         width="23.579"
         height="32.688"><feColorMatrix
           type="matrix"
           values="1 0 0 0 0  0 1 0 0 0  0 0 1 0 0  0 0 0 1 0"
           id="feColorMatrix4665" /></filter></defs><mask
       maskUnits="userSpaceOnUse"
       x="193.325"
       y="92.971"
       width="23.579"
       height="32.688"
       id="SVGID_15_"><g
         filter="url(#Adobe_OpacityMaskFilter_6_)"
         id="g4668"><linearGradient
           id="SVGID_14_"
           gradientUnits="userSpaceOnUse"
           x1="442.0215"
           y1="325.6875"
           x2="389.4377"
           y2="346.4799"
           gradientTransform="matrix(1 0 0 1 -211.0547 -224.6406)"><stop
             offset="0"
             style="stop-color:#8A8C8E"
             id="stop4671" /><stop
             offset="0.2386"
             style="stop-color:#77797B"
             id="stop4673" /><stop
             offset="0.7482"
             style="stop-color:#4E4E50"
             id="stop4675" /><stop
             offset="1"
             style="stop-color:#383839"
             id="stop4677" /></linearGradient><path
           fill="url(#SVGID_14_)"
           d="M201.825,113.563l0.114-0.268l5.113-11.188l-7.75-12.842l-10.223,2.058l-1.676,14.926     c0,0-3.765,22.753-3.409,23.244c0.356,0.496,13.988,10.883,14.812,10.556c0.823-0.33,19.126-8.083,19.126-8.083l1.98-18.403     H201.825z"
           id="path4679" /></g></mask><g
       mask="url(#SVGID_15_)"
       id="g4681"><path
         fill="#FFFFFF"
         d="M210.217,113.62c-3.229,3.56-7.711,5.949-12.751,6.487v-4.63l0.011-19.148l3.172,2.561l0.019,0.021v17.24    c1.74-0.582,3.359-1.449,4.801-2.53H210.217L210.217,113.62z"
         id="path4683" /><path
         fill="#FFFFFF"
         d="M216.904,113.62c-4.5,7.21-12.488,12.039-21.628,12.039c-0.66,0-1.31-0.021-1.951-0.08V92.971l3.2,2.59    v25.817c4.142-0.229,7.95-1.64,11.13-3.89c0.28-0.2,0.562-0.41,0.821-0.631c0.13-0.089,0.277-0.188,0.399-0.31    c0.271-0.229,0.538-0.449,0.79-0.69c0.13-0.102,0.25-0.219,0.369-0.33c0.109-0.117,0.229-0.229,0.351-0.369    c0.109-0.088,0.211-0.189,0.302-0.299c0.099-0.091,0.189-0.189,0.27-0.28c0.159-0.169,0.32-0.341,0.479-0.522    c0.13-0.148,0.252-0.288,0.361-0.437H216.904z"
         id="path4685" /></g><path
       fill="#FFFFFF"
       d="M220.783,100.152c0,4.946-1.439,9.55-3.879,13.468h-5.103c0.052-0.055,0.091-0.106,0.13-0.158   c0.133-0.172,0.268-0.33,0.385-0.504c0.016-0.011,0.016-0.023,0.025-0.039c2.702-3.572,4.3-8.018,4.3-12.829v-0.559   c-0.016-0.156-0.016-0.327-0.023-0.485c-0.016-0.172-0.016-0.356-0.025-0.541c-0.026-0.187-0.042-0.355-0.055-0.541   c-0.039-0.384-0.094-0.777-0.146-1.16c-0.023-0.146-0.055-0.29-0.081-0.437c-0.023-0.185-0.062-0.354-0.104-0.526   c-0.065-0.344-0.146-0.698-0.236-1.028c-2.333-9.232-10.696-16.063-20.667-16.063c-2.203,0-4.328,0.328-6.334,0.963   c-0.977,0.304-1.925,0.674-2.832,1.106c-0.2,0.094-0.4,0.198-0.598,0.289c-0.21,0.105-0.407,0.227-0.618,0.33   c-0.188,0.105-0.355,0.198-0.527,0.317c-0.13,0.064-0.265,0.146-0.395,0.235c-0.12,0.079-0.252,0.158-0.382,0.237   c-0.068,0.052-0.146,0.093-0.214,0.146c-0.039,0.026-0.093,0.065-0.132,0.094c-0.052,0.024-0.104,0.064-0.146,0.092   c-0.104,0.079-0.208,0.146-0.314,0.227c-0.346,0.264-0.699,0.525-1.026,0.804c-4.775,3.918-7.81,9.854-7.81,16.488v13.543h-4.206   V74.604c0.272,0.015,2.003,0.094,4.071,0.767c2.086,0.674,4.513,1.939,6.201,4.301c0.291-0.21,0.579-0.409,0.87-0.619   c4.087-2.784,9.033-4.419,14.362-4.419C209.357,74.631,220.783,86.055,220.783,100.152z"
       id="path4687" /><path
       fill="#FFFFFF"
       d="M166.105,89.859v0.04c-0.348,0.449-0.67,0.93-0.969,1.409c-0.681,1.09-1.25,2.271-1.66,3.51   c-0.2,0.57-0.369,1.15-0.51,1.75c-0.01,0.051-0.021,0.102-0.03,0.141c-0.12,0.551-0.219,1.102-0.278,1.661   c0,0.028-0.011,0.039-0.011,0.049c-0.07,0.562-0.102,1.109-0.111,1.682c-0.011,0.049-0.019,0.099-0.019,0.147v0.102   c0,0.021,0,0.06,0.008,0.081c-0.008,0.021-0.008,0.028-0.008,0.049v13.141h-3.32v-13.52c0.021-4.852,1.759-9.301,4.641-12.76   c0.399-0.481,0.811-0.95,1.26-1.392c0.109-0.1,0.221-0.21,0.33-0.319c0.182-0.17,0.351-0.341,0.53-0.49   C166.059,86.92,166.088,88.659,166.105,89.859z"
       id="path4689" /><path
       fill="#FFFFFF"
       d="M166.105,91.421V113.6l-0.018,0.021h-2.611v-13.52C163.497,96.89,164.456,93.909,166.105,91.421z"
       id="path4691" /><path
       fill="#FFFFFF"
       d="M165.866,83.65c-4.759,3.899-7.781,9.81-7.781,16.439v13.53h-4.208V74.681c0.559,0.02,6.89,0.35,10.26,5.06   c0.748,1.062,1.358,2.341,1.72,3.891C165.866,83.631,165.866,83.64,165.866,83.65z"
       id="path4693" /><defs
       id="defs4695"><filter
         id="Adobe_OpacityMaskFilter_7_"
         filterUnits="userSpaceOnUse"
         x="153.876"
         y="113.62"
         width="12.211"
         height="9.859"><feColorMatrix
           type="matrix"
           values="1 0 0 0 0  0 1 0 0 0  0 0 1 0 0  0 0 0 1 0"
           id="feColorMatrix4698" /></filter></defs><mask
       maskUnits="userSpaceOnUse"
       x="153.876"
       y="113.62"
       width="12.211"
       height="9.859"
       id="SVGID_2_"><g
         filter="url(#Adobe_OpacityMaskFilter_7_)"
         id="g4701"><linearGradient
           id="SVGID_16_"
           gradientUnits="userSpaceOnUse"
           x1="396.1426"
           y1="-146.4409"
           x2="396.7676"
           y2="-164.8159"
           gradientTransform="matrix(1 0 0 -1 -236 -35)"><stop
             offset="0"
             style="stop-color:#8C8E90"
             id="stop4704" /><stop
             offset="0.4007"
             style="stop-color:#4F5051"
             id="stop4706" /><stop
             offset="0.8054"
             style="stop-color:#161617"
             id="stop4708" /><stop
             offset="1"
             style="stop-color:#000000"
             id="stop4710" /></linearGradient><rect
           x="153.185"
           y="113.628"
           fill="url(#SVGID_16_)"
           width="14.427"
           height="10.67"
           id="rect4712" /></g></mask><g
       mask="url(#SVGID_2_)"
       id="g4714"><polygon
         fill="#FFFFFF"
         points="158.085,113.62 158.085,120.089 153.897,123.479 153.876,123.479 153.876,113.62   "
         id="polygon4716" /><polygon
         fill="#FFFFFF"
         points="162.518,113.62 162.518,116.509 159.197,119.198 159.197,113.62   "
         id="polygon4718" /><polygon
         fill="#FFFFFF"
         points="166.088,113.62 163.477,115.729 163.477,113.62   "
         id="polygon4720" /></g></g></svg>