<?xml version="1.0" encoding="UTF-8" standalone="no"?>
<!-- Created with Inkscape (http://www.inkscape.org/) -->

<svg
   xmlns:dc="http://purl.org/dc/elements/1.1/"
   xmlns:cc="http://creativecommons.org/ns#"
   xmlns:rdf="http://www.w3.org/1999/02/22-rdf-syntax-ns#"
   xmlns:svg="http://www.w3.org/2000/svg"
   xmlns="http://www.w3.org/2000/svg"
   xmlns:sodipodi="http://sodipodi.sourceforge.net/DTD/sodipodi-0.dtd"
   xmlns:inkscape="http://www.inkscape.org/namespaces/inkscape"
   version="1.1"
   id="Layer_1"
   x="0px"
   y="0px"
   width="320px"
   height="180px"
   viewBox="0 0 320 180"
   enable-background="new 0 0 320 180"
   xml:space="preserve"
   inkscape:version="0.91 r13725"
   sodipodi:docname="tvbanner_ink.svg"><metadata
     id="metadata5037"><rdf:RDF><cc:Work
         rdf:about=""><dc:format>image/svg+xml</dc:format><dc:type
           rdf:resource="http://purl.org/dc/dcmitype/StillImage" /><dc:title></dc:title></cc:Work></rdf:RDF></metadata><defs
     id="defs5035" /><sodipodi:namedview
     pagecolor="#ffffff"
     bordercolor="#666666"
     borderopacity="1"
     objecttolerance="10"
     gridtolerance="10"
     guidetolerance="10"
     inkscape:pageopacity="0"
     inkscape:pageshadow="2"
     inkscape:window-width="1920"
     inkscape:window-height="1017"
     id="namedview5033"
     showgrid="false"
     inkscape:zoom="0.9"
     inkscape:cx="-6.1111111"
     inkscape:cy="90"
     inkscape:window-x="-8"
     inkscape:window-y="-8"
     inkscape:window-maximized="1"
     inkscape:current-layer="Layer_1" /><g
     id="Layer_1_1_"><rect
       fill="#66A030"
       width="320"
       height="180"
       id="rect4769" /></g><g
     id="g4771"><g
       id="g4773"><path
         fill="#FFFFFF"
         d="M163.882,67.852l-0.039,0.04c0,0-0.011,0.01-0.021,0.01c-1.18,1.04-2.729,1.67-4.42,1.67h-0.169    c-0.12-0.01-0.239-0.01-0.361-0.021c-0.112-0.009-0.221-0.02-0.32-0.03c-0.109-0.02-0.21-0.029-0.312-0.049    c-0.047-0.011-0.099-0.021-0.148-0.03c-0.049-0.01-0.101-0.021-0.15-0.029c-0.039-0.011-0.091-0.021-0.12-0.03    c-0.112-0.021-0.21-0.051-0.299-0.08c-0.052-0.011-0.101-0.03-0.14-0.041c-0.021-0.009-0.042-0.009-0.052-0.02    c-0.049-0.01-0.088-0.029-0.14-0.04c-0.049-0.021-0.099-0.04-0.161-0.06c-0.047-0.02-0.099-0.04-0.148-0.06    c-0.109-0.051-0.21-0.091-0.309-0.141c-0.052-0.021-0.099-0.04-0.151-0.07c-0.049-0.029-0.099-0.051-0.151-0.08    c-0.049-0.02-0.099-0.05-0.15-0.079c-0.049-0.021-0.088-0.051-0.14-0.081c-0.058-0.029-0.109-0.06-0.159-0.1    c-0.06-0.03-0.112-0.07-0.159-0.101c-0.052-0.039-0.101-0.07-0.161-0.11c-0.052-0.028-0.099-0.068-0.151-0.108    c-0.021-0.021-0.049-0.041-0.078-0.061c-0.042-0.04-0.091-0.07-0.13-0.11c-0.042-0.029-0.083-0.06-0.122-0.1    c-0.07-0.06-0.148-0.13-0.231-0.211c0,0,0,0-0.008,0c-0.031-0.039-0.07-0.068-0.112-0.108c-0.039-0.041-0.067-0.081-0.109-0.121    l-0.119-0.119c0,0,0-0.011-0.011-0.011c-0.042-0.05-0.078-0.101-0.13-0.149c-0.042-0.04-0.07-0.091-0.109-0.141    c-0.021-0.02-0.052-0.051-0.07-0.08c-0.161-0.2-0.309-0.409-0.439-0.62c-0.021-0.04-0.042-0.07-0.062-0.11    c-0.01-0.009-0.01-0.009-0.021-0.02c0-0.01,0-0.01,0-0.02c0,0-0.011-0.01-0.011-0.021l-0.007-0.011    c-0.569-0.989-0.891-2.118-0.891-3.339c0-3.46,2.621-6.31,5.991-6.67v7.91l-1.07-0.86v-5.729c-2.229,0.739-3.83,2.85-3.83,5.33    c0,0.14,0,0.27,0.011,0.41v0.009c0.067,0.911,0.348,1.761,0.811,2.501c0.028,0.049,0.057,0.1,0.088,0.149    c0.07,0.1,0.141,0.2,0.21,0.3c0.081,0.11,0.169,0.211,0.26,0.319c0.028,0.031,0.06,0.071,0.091,0.101    c0.078,0.08,0.15,0.17,0.239,0.25c0.042,0.041,0.081,0.081,0.13,0.12c0,0,0,0.01,0.011,0.01c0.042,0.041,0.078,0.081,0.13,0.11    c0.049,0.05,0.099,0.09,0.15,0.131c0.049,0.029,0.088,0.069,0.13,0.1c0.239,0.179,0.499,0.319,0.769,0.46    c0.769,0.409,1.65,0.649,2.59,0.649c0.631,0,1.229-0.109,1.79-0.299c0.021,0,0.031-0.011,0.031-0.011    c0.159-0.061,0.32-0.12,0.471-0.19c0.779-0.36,1.472-0.89,2-1.539c0.051-0.061,0.092-0.101,0.142-0.16v0.02    C163.832,66.682,163.843,67.261,163.882,67.852z"
         id="path4775" /><path
         fill="#FFFFFF"
         d="M164.484,69.661c-0.094,0.07-0.192,0.141-0.291,0.2c-1.361,0.93-3.002,1.479-4.781,1.479    c-4.689,0-8.5-3.811-8.5-8.499c0-4.7,3.811-8.501,8.5-8.501c0.221,0,0.439,0.011,0.649,0.021v10.85l-1.07-0.86v-8.59    c-1.379,0.08-2.65,0.551-3.699,1.3c-0.102,0.07-0.19,0.141-0.281,0.211c-0.039,0.029-0.091,0.07-0.13,0.1    c-0.091,0.079-0.179,0.16-0.26,0.23c-0.049,0.04-0.081,0.079-0.13,0.11l-0.12,0.119c-0.028,0.04-0.07,0.07-0.101,0.11    c-0.029,0.03-0.057,0.06-0.078,0.09c-0.062,0.06-0.109,0.11-0.161,0.17c-0.06,0.07-0.109,0.141-0.171,0.2    c-0.039,0.06-0.078,0.109-0.13,0.17c0,0,0,0.011-0.01,0.011c-0.889,1.189-1.429,2.679-1.429,4.279v0.18    c0.01,0.061,0.01,0.11,0.01,0.16c0.011,0.06,0.011,0.119,0.011,0.181c0.01,0.06,0.01,0.119,0.021,0.179    c0.011,0.131,0.029,0.261,0.049,0.391c0.011,0.05,0.019,0.1,0.019,0.15c0.01,0.06,0.021,0.11,0.042,0.17    c0.021,0.119,0.049,0.23,0.081,0.35c0.779,3.07,3.559,5.34,6.879,5.34c0.73,0,1.442-0.108,2.111-0.319    c0.329-0.1,0.641-0.221,0.949-0.361c0.061-0.028,0.13-0.068,0.189-0.1c0.067-0.039,0.141-0.069,0.211-0.109    c0.06-0.03,0.119-0.07,0.18-0.1c0.041-0.03,0.08-0.051,0.13-0.081c0.041-0.029,0.08-0.06,0.119-0.09    c0.03-0.01,0.052-0.029,0.069-0.04c0.021-0.009,0.029-0.02,0.053-0.029c0.02-0.011,0.027-0.02,0.05-0.041    c0.028-0.02,0.067-0.039,0.099-0.068c0.119-0.091,0.23-0.181,0.354-0.271c0,0.009,0,0.009,0,0.009    C164.032,68.882,164.232,69.302,164.484,69.661z"
         id="path4777" /></g><path
       fill="#FFFFFF"
       d="M58.883,75.352"
       id="path4779" /><path
       fill="#FFFFFF"
       d="M193.075,115.158l-0.052,0.035v-0.104C193.039,115.114,193.059,115.132,193.075,115.158z"
       id="path4781" /><path
       fill="#FFFFFF"
       d="M193.075,115.158l-0.052,0.035v-0.104C193.039,115.114,193.059,115.132,193.075,115.158z"
       id="path4783" /><path
       fill="#FFFFFF"
       d="M98.661,111.404"
       id="path4785" /><defs
       id="defs4787"><filter
         id="Adobe_OpacityMaskFilter"
         filterUnits="userSpaceOnUse"
         x="117.665"
         y="87.739"
         width="32.61"
         height="7.341"><feColorMatrix
           type="matrix"
           values="1 0 0 0 0  0 1 0 0 0  0 0 1 0 0  0 0 0 1 0"
           id="feColorMatrix4790" /></filter></defs><mask
       maskUnits="userSpaceOnUse"
       x="117.665"
       y="87.739"
       width="32.61"
       height="7.341"
       id="SVGID_3_"><g
         filter="url(#Adobe_OpacityMaskFilter)"
         id="g4793"><linearGradient
           id="SVGID_1_"
           gradientUnits="userSpaceOnUse"
           x1="588.585"
           y1="-381.9707"
           x2="575.5183"
           y2="-335.2781"
           gradientTransform="matrix(1 0 0 -1 -447.0547 -259.6406)"><stop
             offset="0"
             style="stop-color:#8A8C8E"
             id="stop4796" /><stop
             offset="0.3966"
             style="stop-color:#727376"
             id="stop4798" /><stop
             offset="0.7187"
             style="stop-color:#565759"
             id="stop4800" /><stop
             offset="1"
             style="stop-color:#3D3D3E"
             id="stop4802" /></linearGradient><rect
           x="115.462"
           y="87.744"
           fill="url(#SVGID_1_)"
           width="35.723"
           height="10.52"
           id="rect4804" /></g></mask><g
       mask="url(#SVGID_3_)"
       id="g4806"><path
         fill="#FFFFFF"
         d="M130.172,90.276L130.172,90.276z"
         id="path4808" /><path
         fill="#FFFFFF"
         d="M150.275,93.141c0,0.649-0.031,1.291-0.081,1.939h-9.568l-15.861-0.012h-7.1l2.59-3.198h25.749    c-0.078-1.421-0.291-2.79-0.649-4.131h4.339C150.078,89.489,150.275,91.289,150.275,93.141z"
         id="path4810" /><path
         fill="#FFFFFF"
         d="M144.737,90.939h-23.73l2.559-3.169l0.029-0.03h20.521C144.396,88.789,144.617,89.84,144.737,90.939z"
         id="path4812" /></g><defs
       id="defs4814"><filter
         id="Adobe_OpacityMaskFilter_1_"
         filterUnits="userSpaceOnUse"
         x="99.344"
         y="106.59"
         width="48.801"
         height="11.991"><feColorMatrix
           type="matrix"
           values="1 0 0 0 0  0 1 0 0 0  0 0 1 0 0  0 0 0 1 0"
           id="feColorMatrix4817" /></filter></defs><mask
       maskUnits="userSpaceOnUse"
       x="99.344"
       y="106.59"
       width="48.801"
       height="11.991"
       id="SVGID_5_"><g
         filter="url(#Adobe_OpacityMaskFilter_1_)"
         id="g4820"><linearGradient
           id="SVGID_4_"
           gradientUnits="userSpaceOnUse"
           x1="570.7002"
           y1="-353.0684"
           x2="570.8415"
           y2="-389.2631"
           gradientTransform="matrix(1 0 0 -1 -447.0547 -259.6406)"><stop
             offset="0"
             style="stop-color:#8A8C8E"
             id="stop4823" /><stop
             offset="0.2503"
             style="stop-color:#78797C"
             id="stop4825" /><stop
             offset="0.7775"
             style="stop-color:#434345"
             id="stop4827" /><stop
             offset="1"
             style="stop-color:#000000"
             id="stop4829" /></linearGradient><path
           fill="url(#SVGID_4_)"
           d="M108.313,106.59c3.902,4.756,9.817,7.784,16.448,7.784h20.002l3.382,4.188v0.019H99.344     c0.026-0.56,0.349-6.894,5.061-10.261c1.06-0.756,2.341-1.363,3.892-1.719C108.294,106.59,108.308,106.59,108.313,106.59z"
           id="path4831" /></g></mask><path
       mask="url(#SVGID_5_)"
       fill="#FFFFFF"
       d="M108.313,106.59c3.902,4.756,9.817,7.784,16.448,7.784h20.002l3.382,4.188v0.019   H99.344c0.026-0.56,0.349-6.894,5.061-10.261c1.06-0.756,2.341-1.363,3.892-1.719C108.294,106.59,108.308,106.59,108.313,106.59z"
       id="path4833" /><defs
       id="defs4835"><filter
         id="Adobe_OpacityMaskFilter_2_"
         filterUnits="userSpaceOnUse"
         x="44.651"
         y="113.62"
         width="12.253"
         height="9.903"><feColorMatrix
           type="matrix"
           values="1 0 0 0 0  0 1 0 0 0  0 0 1 0 0  0 0 0 1 0"
           id="feColorMatrix4838" /></filter></defs><mask
       maskUnits="userSpaceOnUse"
       x="44.651"
       y="113.62"
       width="12.253"
       height="9.903"
       id="SVGID_7_"><g
         filter="url(#Adobe_OpacityMaskFilter_2_)"
         id="g4841"><linearGradient
           id="SVGID_6_"
           gradientUnits="userSpaceOnUse"
           x1="497.834"
           y1="-367.1509"
           x2="497.834"
           y2="-385.2408"
           gradientTransform="matrix(1 0 0 -1 -447.0547 -259.6406)"><stop
             offset="0"
             style="stop-color:#8A8C8E"
             id="stop4844" /><stop
             offset="0.3576"
             style="stop-color:#67686B"
             id="stop4846" /><stop
             offset="0.7874"
             style="stop-color:#363637"
             id="stop4848" /><stop
             offset="1"
             style="stop-color:#000000"
             id="stop4850" /></linearGradient><rect
           x="43.14"
           y="113.62"
           fill="url(#SVGID_6_)"
           width="15.279"
           height="11.959"
           id="rect4852" /></g></mask><g
       mask="url(#SVGID_7_)"
       id="g4854"><polygon
         fill="#FFFFFF"
         points="49.982,119.227 53.306,116.535 53.306,113.62 49.982,113.62   "
         id="polygon4856" /><polygon
         fill="#FFFFFF"
         points="54.27,115.756 56.904,113.62 54.27,113.62   "
         id="polygon4858" /><polygon
         fill="#FFFFFF"
         points="44.651,123.523 44.667,123.523 48.86,120.136 48.86,113.62 44.651,113.62   "
         id="polygon4860" /></g><path
       fill="#FFFFFF"
       d="M54.27,113.62h2.637V91.383c-1.647,2.493-2.626,5.487-2.637,8.691V113.62z"
       id="path4862" /><line
       fill="none"
       x1="149.709"
       y1="94.745"
       x2="149.694"
       y2="94.745"
       id="line4864" /><g
       id="g4866"><path
         fill="#FFFFFF"
         d="M124.833,67.684c-14.061,0-25.455,11.396-25.455,25.458c0,5.303,1.634,10.231,4.403,14.309    c0.213,0.304,0.411,0.582,0.619,0.869c1.07-0.75,2.348-1.355,3.892-1.728c0,0,0.016,0,0.026,0    c-0.275-0.329-0.551-0.688-0.803-1.042c-0.093-0.094-0.158-0.197-0.226-0.304c-0.039-0.052-0.078-0.095-0.093-0.146    c-0.037-0.053-0.062-0.095-0.091-0.134c-0.054-0.062-0.106-0.146-0.146-0.21c-0.091-0.13-0.171-0.266-0.252-0.396    c-0.078-0.118-0.156-0.252-0.236-0.383c-0.104-0.172-0.21-0.345-0.304-0.527c-0.12-0.195-0.224-0.408-0.328-0.619    c-0.106-0.186-0.197-0.382-0.291-0.596c-0.437-0.908-0.805-1.844-1.106-2.82c-0.634-2.006-0.964-4.129-0.964-6.316    c0-9.945,6.82-18.28,16.024-20.615c0.33-0.093,0.686-0.17,1.026-0.236c0.174-0.041,0.346-0.065,0.53-0.105    c0.146-0.026,0.291-0.052,0.437-0.065c0.382-0.064,0.764-0.118,1.146-0.157c0.185-0.014,0.372-0.025,0.543-0.038    c0.185-0.016,0.366-0.026,0.553-0.041c0.159-0.014,0.314-0.014,0.476-0.014c0.185-0.014,0.369-0.014,0.553-0.014    c4.801,0,9.233,1.597,12.795,4.286c0.013,0.014,0.026,0.024,0.052,0.024c0.159,0.134,0.33,0.267,0.489,0.385    c0.197,0.171,0.408,0.33,0.592,0.501c0.187,0.156,0.356,0.315,0.527,0.476c0.093,0.079,0.185,0.17,0.278,0.264    c0.104,0.094,0.21,0.197,0.317,0.304l0.354,0.354c0.106,0.12,0.223,0.238,0.33,0.356c0.236,0.265,0.462,0.527,0.686,0.791    c0.106,0.133,0.226,0.265,0.317,0.409c0.21,0.265,0.408,0.526,0.621,0.815c1.476,2.085,2.585,4.434,3.232,6.966h4.339    C147.23,76.271,137.034,67.684,124.833,67.684z"
         id="path4868" /><path
         fill="#FFFFFF"
         d="M124.758,108.98h15.634l-2.127-2.639h-22.179C118.57,107.998,121.557,108.962,124.758,108.98z"
         id="path4870" /><path
         fill="#FFFFFF"
         d="M144.116,87.744C141.77,79.252,134.001,73,124.753,73c-3.64,0-7.041,0.964-9.981,2.664    c-0.026,0.013-0.042,0.025-0.055,0.025c-0.026,0.014-0.039,0.026-0.065,0.026c0,0.013-0.016,0.024-0.026,0.024    c-0.042,0.015-0.052,0.026-0.078,0.04c-0.106,0.054-0.213,0.118-0.317,0.187c-0.647,0.396-1.281,0.844-1.873,1.316    c-0.081,0.066-0.159,0.146-0.252,0.198c-0.13,0.118-0.275,0.236-0.408,0.343c-0.146,0.132-0.304,0.265-0.434,0.396    c-0.016,0.015-0.026,0.015-0.026,0.025c-0.135,0.106-0.252,0.226-0.385,0.344c-0.12,0.12-0.223,0.225-0.33,0.345    c-0.117,0.104-0.236,0.224-0.343,0.343c-0.013,0-0.013,0.013-0.013,0.026c-0.21,0.223-0.436,0.447-0.634,0.686    c-0.104,0.118-0.197,0.225-0.291,0.343c-0.104,0.133-0.21,0.265-0.317,0.396c-0.062,0.092-0.13,0.171-0.182,0.25    c-0.12,0.146-0.239,0.291-0.333,0.448c-0.117,0.159-0.224,0.314-0.328,0.463c-0.104,0.157-0.213,0.314-0.317,0.474    c-0.093,0.173-0.187,0.316-0.291,0.489c-0.093,0.146-0.171,0.276-0.249,0.436c-0.078,0.146-0.161,0.29-0.239,0.436    c-0.078,0.146-0.146,0.29-0.224,0.448c-0.078,0.146-0.146,0.291-0.223,0.448c-0.146,0.306-0.265,0.606-0.397,0.924    c-0.065,0.157-0.133,0.316-0.185,0.462c-0.065,0.157-0.12,0.33-0.171,0.487c-0.052,0.131-0.094,0.264-0.133,0.396    c-0.026,0.053-0.039,0.104-0.054,0.157c-0.037,0.132-0.091,0.276-0.13,0.409c-0.078,0.288-0.171,0.595-0.239,0.895    c-0.026,0.12-0.052,0.239-0.078,0.354c-0.042,0.159-0.068,0.306-0.094,0.463c-0.039,0.146-0.065,0.304-0.094,0.462    c-0.052,0.29-0.104,0.594-0.143,0.911c-0.039,0.316-0.065,0.646-0.094,0.977c-0.026,0.344-0.054,0.699-0.054,1.055    c0,0,0,0,0,0.016c-0.011,0.173-0.011,0.344-0.011,0.516c0,5.062,1.886,9.709,4.999,13.239c0,0.017,0.026,0.041,0.039,0.056    l0.106,0.104l0,0c0.151,0.18,0.317,0.355,0.483,0.529c0.112,0.109,0.224,0.225,0.322,0.33c0.441,0.441,0.909,0.857,1.382,1.256    c3.468,2.884,7.919,4.621,12.762,4.646h19.1l-2.686-3.322h-16.03c-0.021,0-0.029,0-0.044-0.01c-0.028,0.01-0.06,0.01-0.085,0.01    h-0.102c-0.054,0-0.104-0.01-0.153-0.021c-0.562-0.008-1.117-0.041-1.671-0.111c-0.018,0-0.023-0.008-0.049-0.008    c-0.561-0.064-1.112-0.156-1.663-0.285c-0.042-0.009-0.094-0.02-0.146-0.027c-0.592-0.135-1.18-0.305-1.746-0.508    c-1.236-0.414-2.416-0.979-3.51-1.658c-0.483-0.299-0.958-0.62-1.408-0.971h-0.002c-0.156-0.131-0.327-0.264-0.483-0.394    c-1.951-1.621-3.52-3.651-4.588-5.999c-0.213-0.465-0.397-0.938-0.582-1.396c-0.013-0.028-0.026-0.056-0.026-0.095    c-0.579-1.687-0.883-3.495-0.883-5.368c0-3.046,0.805-5.895,2.216-8.349c-0.226,0.367-0.424,0.737-0.608,1.106    c0.475-1.003,1.057-1.951,1.714-2.822c0.094-0.132,0.185-0.251,0.291-0.384c0.117-0.157,0.252-0.314,0.369-0.461    c0.119-0.133,0.226-0.264,0.345-0.383c0.011-0.014,0.011-0.026,0.026-0.039c0.115-0.133,0.25-0.264,0.369-0.396    c0.234-0.236,0.486-0.476,0.738-0.712c0.104-0.094,0.208-0.173,0.301-0.264c0.317-0.265,0.647-0.527,0.977-0.778    c0.278-0.211,0.566-0.423,0.883-0.619c0.146-0.105,0.307-0.197,0.449-0.291c2.216-1.357,4.762-2.202,7.49-2.412h0.016    c0.421-0.026,0.816-0.039,1.239-0.039c7.438,0,13.743,4.8,15.975,11.485L144.116,87.744L144.116,87.744z"
         id="path4872" /></g><defs
       id="defs4874"><filter
         id="Adobe_OpacityMaskFilter_3_"
         filterUnits="userSpaceOnUse"
         x="224.42"
         y="106.59"
         width="48.801"
         height="11.991"><feColorMatrix
           type="matrix"
           values="1 0 0 0 0  0 1 0 0 0  0 0 1 0 0  0 0 0 1 0"
           id="feColorMatrix4877" /></filter></defs><mask
       maskUnits="userSpaceOnUse"
       x="224.42"
       y="106.59"
       width="48.801"
       height="11.991"
       id="SVGID_9_"><g
         filter="url(#Adobe_OpacityMaskFilter_3_)"
         id="g4880"><linearGradient
           id="SVGID_8_"
           gradientUnits="userSpaceOnUse"
           x1="695.7773"
           y1="-353.0693"
           x2="695.9185"
           y2="-389.261"
           gradientTransform="matrix(1 0 0 -1 -447.0547 -259.6406)"><stop
             offset="0"
             style="stop-color:#8A8C8E"
             id="stop4883" /><stop
             offset="0.2503"
             style="stop-color:#78797C"
             id="stop4885" /><stop
             offset="0.7775"
             style="stop-color:#434345"
             id="stop4887" /><stop
             offset="1"
             style="stop-color:#000000"
             id="stop4889" /></linearGradient><path
           fill="url(#SVGID_8_)"
           d="M233.391,106.59c3.9,4.756,9.815,7.784,16.445,7.784h20.002l3.383,4.188v0.019H224.42     c0.023-0.56,0.35-6.894,5.062-10.261c1.062-0.756,2.341-1.363,3.892-1.719C233.373,106.59,233.383,106.59,233.391,106.59z"
           id="path4891" /></g></mask><path
       mask="url(#SVGID_9_)"
       fill="#FFFFFF"
       d="M233.391,106.59c3.9,4.756,9.815,7.784,16.445,7.784h20.002l3.383,4.188v0.019   H224.42c0.023-0.56,0.35-6.894,5.062-10.261c1.062-0.756,2.341-1.363,3.892-1.719C233.373,106.59,233.383,106.59,233.391,106.59z"
       id="path4893" /><g
       id="g4895"><path
         fill="#FFFFFF"
         d="M274.773,87.739h-0.004c-2.47-11.473-12.66-20.058-24.857-20.058c-14.061,0-25.458,11.397-25.458,25.459    c0,5.301,1.637,10.232,4.405,14.307c0.211,0.307,0.408,0.582,0.619,0.873c1.066-0.754,2.349-1.356,3.892-1.729    c0,0,0.013,0,0.026,0c-0.275-0.33-0.555-0.688-0.807-1.042c-0.091-0.094-0.156-0.196-0.224-0.304    c-0.041-0.055-0.08-0.094-0.095-0.146c-0.041-0.052-0.063-0.094-0.092-0.133c-0.056-0.064-0.104-0.146-0.146-0.21    c-0.094-0.133-0.176-0.266-0.25-0.396c-0.08-0.119-0.158-0.252-0.238-0.385c-0.104-0.172-0.211-0.346-0.302-0.529    c-0.119-0.195-0.228-0.405-0.333-0.618c-0.104-0.185-0.194-0.382-0.291-0.593c-0.436-0.909-0.803-1.848-1.104-2.821    c-0.635-2.007-0.965-4.129-0.965-6.317c0-9.946,6.819-18.28,16.024-20.616c0.329-0.091,0.686-0.17,1.028-0.236    c0.172-0.04,0.344-0.064,0.526-0.104c0.144-0.026,0.289-0.053,0.435-0.065c0.385-0.063,0.767-0.118,1.148-0.157    c0.184-0.014,0.368-0.025,0.54-0.039c0.185-0.016,0.369-0.025,0.554-0.04c0.158-0.013,0.316-0.013,0.475-0.013    c0.188-0.015,0.369-0.015,0.558-0.015c4.802,0,9.229,1.597,12.792,4.285c0.016,0.015,0.029,0.026,0.055,0.026    c0.158,0.134,0.33,0.265,0.488,0.383c0.197,0.172,0.408,0.33,0.594,0.502c0.187,0.157,0.354,0.315,0.526,0.476    c0.095,0.079,0.187,0.171,0.274,0.265c0.106,0.094,0.214,0.197,0.316,0.303l0.356,0.355c0.104,0.118,0.224,0.236,0.329,0.356    c0.236,0.264,0.461,0.526,0.687,0.791c0.104,0.131,0.224,0.265,0.317,0.409c0.21,0.264,0.406,0.524,0.617,0.815    c1.479,2.085,2.586,4.433,3.231,6.964h0.006c0.358,1.34,0.566,2.707,0.646,4.126h-25.751l-2.592,3.199h7.102l15.859,0.011h9.569    c0.052-0.649,0.08-1.29,0.08-1.938C275.354,91.289,275.152,89.489,274.773,87.739z"
         id="path4897" /><path
         fill="#FFFFFF"
         d="M265.471,108.98l-2.13-2.639h-22.177c2.482,1.655,5.469,2.619,8.672,2.639H265.471z"
         id="path4899" /><path
         fill="#FFFFFF"
         d="M250.218,109.941c-0.021,0-0.024,0-0.041-0.012c-0.028,0.012-0.06,0.012-0.089,0.012h-0.102    c-0.053,0-0.104-0.012-0.15-0.021c-0.561-0.008-1.119-0.042-1.67-0.109c-0.02,0-0.023-0.008-0.053-0.008    c-0.562-0.066-1.108-0.158-1.659-0.287c-0.042-0.009-0.095-0.02-0.146-0.027c-0.597-0.135-1.181-0.303-1.746-0.508    c-1.239-0.414-2.416-0.979-3.514-1.66c-0.482-0.297-0.959-0.621-1.404-0.967h-0.004c-0.158-0.134-0.326-0.266-0.482-0.396    c-1.951-1.621-3.522-3.653-4.59-5.999c-0.211-0.465-0.397-0.938-0.582-1.396c-0.014-0.026-0.023-0.056-0.023-0.095    c-0.58-1.688-0.886-3.495-0.886-5.366c0-3.049,0.805-5.896,2.218-8.35c-0.227,0.367-0.423,0.736-0.607,1.106    c0.477-1.003,1.059-1.952,1.715-2.822c0.095-0.133,0.188-0.252,0.291-0.384c0.117-0.158,0.252-0.315,0.369-0.462    c0.119-0.132,0.227-0.264,0.344-0.382c0.013-0.015,0.013-0.026,0.027-0.04c0.114-0.133,0.25-0.265,0.366-0.396    c0.236-0.236,0.488-0.475,0.738-0.712c0.106-0.093,0.213-0.172,0.304-0.264c0.316-0.265,0.645-0.527,0.977-0.778    c0.279-0.212,0.566-0.424,0.887-0.619c0.146-0.104,0.302-0.196,0.447-0.29c2.216-1.357,4.765-2.203,7.492-2.413h0.01    c0.425-0.026,0.818-0.039,1.242-0.039c7.436,0,13.74,4.798,15.973,11.481h-17.193l-0.027,0.03l-2.562,3.169h23.729    c-0.121-1.1-0.34-2.149-0.617-3.2h-0.006C266.846,79.249,259.077,73,249.834,73c-3.643,0-7.043,0.964-9.984,2.664    c-0.025,0.013-0.041,0.025-0.055,0.025c-0.025,0.012-0.039,0.026-0.064,0.026c0,0.013-0.016,0.024-0.025,0.024    c-0.039,0.015-0.053,0.026-0.078,0.04c-0.104,0.054-0.21,0.118-0.314,0.187c-0.646,0.396-1.279,0.844-1.873,1.316    c-0.08,0.065-0.157,0.146-0.252,0.198c-0.133,0.118-0.274,0.236-0.408,0.343c-0.145,0.132-0.303,0.265-0.436,0.396    c-0.016,0.015-0.025,0.015-0.025,0.025c-0.133,0.106-0.252,0.226-0.383,0.344c-0.119,0.12-0.227,0.225-0.33,0.345    c-0.119,0.104-0.235,0.224-0.342,0.343c-0.014,0-0.014,0.013-0.014,0.026c-0.211,0.223-0.438,0.447-0.637,0.686    c-0.104,0.118-0.197,0.225-0.289,0.343c-0.104,0.133-0.211,0.265-0.316,0.396c-0.064,0.092-0.133,0.171-0.185,0.25    c-0.119,0.146-0.236,0.291-0.33,0.448c-0.117,0.159-0.224,0.314-0.33,0.463c-0.104,0.157-0.21,0.314-0.313,0.474    c-0.094,0.173-0.188,0.316-0.291,0.489c-0.094,0.146-0.172,0.276-0.25,0.436c-0.08,0.146-0.16,0.29-0.238,0.436    c-0.077,0.146-0.146,0.29-0.225,0.448c-0.076,0.146-0.146,0.291-0.226,0.448c-0.146,0.306-0.263,0.606-0.396,0.924    c-0.066,0.157-0.133,0.316-0.188,0.462c-0.064,0.157-0.119,0.33-0.171,0.487c-0.054,0.131-0.095,0.264-0.134,0.396    c-0.025,0.053-0.039,0.104-0.051,0.157c-0.039,0.132-0.095,0.276-0.137,0.409c-0.077,0.288-0.169,0.595-0.232,0.895    c-0.026,0.12-0.056,0.239-0.082,0.354c-0.037,0.159-0.063,0.306-0.092,0.463c-0.039,0.146-0.062,0.304-0.092,0.462    c-0.055,0.29-0.107,0.594-0.146,0.911c-0.041,0.316-0.064,0.646-0.094,0.977c-0.025,0.344-0.055,0.699-0.055,1.055    c0,0,0,0,0,0.016c-0.013,0.173-0.013,0.344-0.013,0.516c0,5.062,1.886,9.709,4.997,13.239c0,0.017,0.027,0.041,0.039,0.056    l0.104,0.104c0.153,0.18,0.32,0.355,0.486,0.529c0.11,0.109,0.224,0.225,0.323,0.33c0.439,0.441,0.908,0.857,1.384,1.256    c3.466,2.884,7.916,4.621,12.759,4.646h19.102l-2.688-3.322h-16.03v0.002H250.218z"
         id="path4901" /></g><path
       fill="#FFFFFF"
       d="M67.849,115.193l0.052-0.035c-0.018-0.026-0.034-0.044-0.052-0.067V115.193z"
       id="path4903" /><path
       fill="#FFFFFF"
       d="M67.849,115.193l0.052-0.035c-0.018-0.026-0.034-0.044-0.052-0.067V115.193z"
       id="path4905" /><path
       fill="#FFFFFF"
       d="M90.34,100.074c0,5.222-1.977,9.971-5.235,13.546h-4.749c4.089-3.089,6.726-7.968,6.726-13.479   c0-0.425-0.026-0.818-0.052-1.24v-0.014c-0.197-2.744-1.055-5.289-2.413-7.505c-0.091-0.159-0.198-0.317-0.289-0.463   c-0.2-0.305-0.411-0.605-0.621-0.885c-0.252-0.329-0.517-0.658-0.777-0.978c-0.093-0.091-0.187-0.196-0.28-0.303   c-0.224-0.251-0.458-0.5-0.712-0.739c-0.117-0.131-0.263-0.249-0.395-0.369c-0.013-0.013-0.013-0.025-0.039-0.025   c-0.117-0.117-0.236-0.235-0.382-0.344c-0.146-0.131-0.304-0.264-0.462-0.382c-0.132-0.104-0.25-0.197-0.369-0.291   c-0.556-0.409-1.123-0.776-1.73-1.106c-0.301-0.173-0.618-0.344-0.935-0.501c-2.242-1.096-4.775-1.715-7.425-1.715   c-1.886,0-3.708,0.304-5.396,0.87c-0.026,0.013-0.065,0.026-0.091,0.039c-0.462,0.187-0.938,0.37-1.398,0.581   c-2.349,1.067-4.396,2.65-6.017,4.604c-0.13,0.157-0.275,0.328-0.395,0.486c-0.358,0.448-0.676,0.924-0.977,1.413   c-0.673,1.094-1.242,2.279-1.663,3.521c-0.197,0.565-0.369,1.146-0.515,1.741c0,0.052-0.013,0.104-0.026,0.145   c-0.12,0.557-0.213,1.106-0.275,1.674c0,0.028-0.016,0.028-0.016,0.056c-0.065,0.54-0.104,1.106-0.119,1.661   c0,0.054-0.011,0.104-0.011,0.156v0.106c0,0.022,0,0.052,0.011,0.078c-0.011,0.026-0.011,0.026-0.011,0.039v13.164h-3.325v-13.541   c0.026-4.841,1.767-9.312,4.655-12.78c0.395-0.476,0.816-0.95,1.252-1.387c0.106-0.104,0.226-0.211,0.333-0.328   c0.185-0.173,0.354-0.345,0.541-0.488l0.104-0.104c0.015-0.014,0.026-0.04,0.052-0.04c3.536-3.125,8.191-5.012,13.284-5.012   c0.171,0,0.33,0,0.501,0.014c0.013,0,0.013,0,0.013,0c0.356,0.014,0.712,0.025,1.068,0.054c0.33,0.025,0.645,0.053,0.977,0.104   c0.301,0.026,0.618,0.079,0.909,0.133c0.158,0.025,0.304,0.053,0.462,0.093c0.158,0.026,0.304,0.054,0.462,0.093   c0.12,0.025,0.236,0.053,0.354,0.079c0.306,0.078,0.608,0.157,0.899,0.236c0.13,0.054,0.275,0.094,0.421,0.133   c0.052,0.014,0.104,0.04,0.145,0.053c0.146,0.04,0.265,0.079,0.411,0.133c0.156,0.053,0.314,0.118,0.473,0.171   c0.159,0.065,0.317,0.12,0.479,0.187c0.314,0.132,0.618,0.264,0.909,0.407c0.171,0.065,0.314,0.147,0.462,0.212   c0.156,0.078,0.301,0.157,0.447,0.236s0.291,0.146,0.434,0.238c0.158,0.079,0.291,0.157,0.436,0.249   c0.172,0.094,0.33,0.186,0.489,0.291c0.158,0.104,0.317,0.212,0.475,0.315c0.156,0.104,0.304,0.211,0.463,0.316   c0.156,0.104,0.314,0.225,0.459,0.343c0.081,0.053,0.159,0.118,0.236,0.186c0.148,0.094,0.278,0.212,0.398,0.315   c0.132,0.094,0.236,0.186,0.355,0.291c0.224,0.211,0.463,0.422,0.686,0.633c0.013,0,0.013,0,0.026,0.015   c0.104,0.118,0.224,0.225,0.343,0.344c0.119,0.104,0.223,0.224,0.343,0.342c0.12,0.119,0.239,0.237,0.343,0.37   c0.016,0.013,0.016,0.013,0.026,0.026c0.135,0.144,0.265,0.304,0.395,0.435c0.12,0.146,0.229,0.291,0.343,0.422   c0.054,0.08,0.135,0.159,0.197,0.251c0.488,0.594,0.925,1.229,1.32,1.873c0.078,0.104,0.132,0.211,0.197,0.317   c0.016,0.024,0.016,0.039,0.042,0.078c0,0.014,0,0.025,0.011,0.025c0.016,0.026,0.016,0.039,0.026,0.065   c0.016,0.013,0.028,0.024,0.042,0.053C89.366,93.006,90.34,96.422,90.34,100.074z"
       id="path4907" /><defs
       id="defs4909"><filter
         id="Adobe_OpacityMaskFilter_4_"
         filterUnits="userSpaceOnUse"
         x="68.206"
         y="92.979"
         width="23.589"
         height="32.681"><feColorMatrix
           type="matrix"
           values="1 0 0 0 0  0 1 0 0 0  0 0 1 0 0  0 0 0 1 0"
           id="feColorMatrix4912" /></filter></defs><mask
       maskUnits="userSpaceOnUse"
       x="68.206"
       y="92.979"
       width="23.589"
       height="32.681"
       id="SVGID_11_"><g
         filter="url(#Adobe_OpacityMaskFilter_4_)"
         id="g4915"><linearGradient
           id="SVGID_10_"
           gradientUnits="userSpaceOnUse"
           x1="554.4014"
           y1="-360.0977"
           x2="501.1678"
           y2="-381.1472"
           gradientTransform="matrix(1 0 0 -1 -447.0547 -259.6406)"><stop
             offset="0"
             style="stop-color:#8A8C8E"
             id="stop4918" /><stop
             offset="0.2386"
             style="stop-color:#77797B"
             id="stop4920" /><stop
             offset="0.7482"
             style="stop-color:#4E4E50"
             id="stop4922" /><stop
             offset="1"
             style="stop-color:#383839"
             id="stop4924" /></linearGradient><path
           fill="url(#SVGID_10_)"
           d="M76.713,113.562l0.117-0.268l5.108-11.188l-7.747-12.842l-10.223,2.058L62.29,106.25     c0,0-3.765,22.753-3.406,23.244c0.354,0.496,13.988,10.883,14.811,10.556c0.824-0.329,19.124-8.083,19.124-8.083l1.979-18.402     H76.713V113.562z"
           id="path4926" /></g></mask><g
       mask="url(#SVGID_11_)"
       id="g4928"><path
         fill="#FFFFFF"
         d="M85.107,113.62c-3.232,3.56-7.721,5.948-12.761,6.487v-4.631l0.021-19.129l3.19,2.58v17.223    c1.741-0.582,3.359-1.452,4.801-2.53H85.107L85.107,113.62z"
         id="path4930" /><path
         fill="#FFFFFF"
         d="M91.795,113.62c-4.5,7.21-12.489,12.039-21.628,12.039c-0.67,0-1.312-0.021-1.961-0.08V92.979l3.211,2.602    v25.798c4.141-0.229,7.95-1.64,11.13-3.89c0.281-0.2,0.551-0.41,0.821-0.631c0.13-0.09,0.271-0.188,0.39-0.311    c0.281-0.229,0.541-0.449,0.79-0.689c0.14-0.103,0.26-0.219,0.369-0.33c0.12-0.117,0.239-0.229,0.359-0.369    c0.111-0.088,0.213-0.189,0.301-0.299c0.099-0.092,0.192-0.189,0.27-0.28c0.161-0.169,0.312-0.341,0.47-0.522    c0.13-0.147,0.252-0.287,0.372-0.437H91.795z"
         id="path4932" /></g><path
       fill="#FFFFFF"
       d="M95.671,100.152c0,4.945-1.439,9.55-3.879,13.468h-5.105c0.055-0.056,0.094-0.106,0.135-0.158   c0.13-0.172,0.26-0.33,0.379-0.504c0.016-0.011,0.016-0.022,0.026-0.039c2.707-3.571,4.302-8.019,4.302-12.829v-0.559   c-0.016-0.156-0.016-0.327-0.026-0.485c-0.016-0.172-0.016-0.356-0.026-0.541c-0.026-0.187-0.042-0.354-0.054-0.541   c-0.039-0.384-0.091-0.776-0.143-1.159c-0.026-0.146-0.055-0.291-0.081-0.438c-0.026-0.186-0.065-0.354-0.106-0.526   c-0.065-0.344-0.146-0.698-0.236-1.028C88.521,85.58,80.161,78.749,70.19,78.749c-2.203,0-4.329,0.328-6.334,0.963   c-0.977,0.304-1.922,0.674-2.834,1.106c-0.197,0.094-0.397,0.198-0.595,0.289c-0.21,0.105-0.408,0.227-0.619,0.33   c-0.187,0.105-0.353,0.198-0.527,0.317c-0.132,0.064-0.262,0.146-0.397,0.235c-0.117,0.079-0.25,0.158-0.382,0.237   c-0.065,0.052-0.143,0.093-0.21,0.146c-0.039,0.026-0.094,0.065-0.132,0.094c-0.055,0.024-0.106,0.064-0.146,0.092   c-0.106,0.079-0.21,0.146-0.314,0.227c-0.343,0.264-0.702,0.525-1.029,0.804c-4.775,3.918-7.81,9.854-7.81,16.488v13.543h-4.209   V74.604c0.275,0.015,2.006,0.094,4.077,0.767c2.083,0.674,4.513,1.939,6.199,4.301c0.291-0.21,0.579-0.409,0.87-0.619   c4.089-2.784,9.036-4.419,14.364-4.419C84.25,74.631,95.671,86.055,95.671,100.152z"
       id="path4934" /><path
       fill="#FFFFFF"
       d="M183.995,75.352"
       id="path4936" /><defs
       id="defs4938"><filter
         id="Adobe_OpacityMaskFilter_5_"
         filterUnits="userSpaceOnUse"
         x="169.768"
         y="113.62"
         width="12.252"
         height="9.903"><feColorMatrix
           type="matrix"
           values="1 0 0 0 0  0 1 0 0 0  0 0 1 0 0  0 0 0 1 0"
           id="feColorMatrix4941" /></filter></defs><mask
       maskUnits="userSpaceOnUse"
       x="169.768"
       y="113.62"
       width="12.252"
       height="9.903"
       id="SVGID_13_"><g
         filter="url(#Adobe_OpacityMaskFilter_5_)"
         id="g4944"><linearGradient
           id="SVGID_12_"
           gradientUnits="userSpaceOnUse"
           x1="622.9414"
           y1="-367.1509"
           x2="622.9414"
           y2="-385.2408"
           gradientTransform="matrix(1 0 0 -1 -447.0547 -259.6406)"><stop
             offset="0"
             style="stop-color:#8A8C8E"
             id="stop4947" /><stop
             offset="0.3576"
             style="stop-color:#67686B"
             id="stop4949" /><stop
             offset="0.7874"
             style="stop-color:#363637"
             id="stop4951" /><stop
             offset="1"
             style="stop-color:#000000"
             id="stop4953" /></linearGradient><rect
           x="168.249"
           y="113.62"
           fill="url(#SVGID_12_)"
           width="15.278"
           height="11.959"
           id="rect4955" /></g></mask><g
       mask="url(#SVGID_13_)"
       id="g4957"><polygon
         fill="#FFFFFF"
         points="175.092,119.227 178.417,116.535 178.417,113.62 175.092,113.62   "
         id="polygon4959" /><polygon
         fill="#FFFFFF"
         points="179.379,115.756 182.02,113.62 179.379,113.62   "
         id="polygon4961" /><polygon
         fill="#FFFFFF"
         points="169.768,123.523 169.775,123.523 173.973,120.136 173.973,113.62 169.768,113.62   "
         id="polygon4963" /></g><path
       fill="#FFFFFF"
       d="M179.379,113.62h2.641V91.383c-1.647,2.493-2.625,5.487-2.641,8.691V113.62z"
       id="path4965" /><path
       fill="#FFFFFF"
       d="M192.961,115.193l0.051-0.035c-0.017-0.026-0.035-0.044-0.051-0.067V115.193z"
       id="path4967" /><path
       fill="#FFFFFF"
       d="M192.961,115.193l0.051-0.035c-0.017-0.026-0.035-0.044-0.051-0.067V115.193z"
       id="path4969" /><path
       fill="#FFFFFF"
       d="M215.454,100.074c0,5.222-1.979,9.971-5.233,13.546h-4.753c4.093-3.089,6.731-7.968,6.731-13.479   c0-0.425-0.028-0.818-0.055-1.24v-0.014c-0.197-2.744-1.056-5.289-2.416-7.505c-0.092-0.159-0.197-0.317-0.289-0.463   c-0.194-0.305-0.407-0.605-0.617-0.885c-0.254-0.329-0.518-0.658-0.78-0.978c-0.091-0.091-0.187-0.196-0.274-0.303   c-0.224-0.251-0.463-0.5-0.711-0.739c-0.121-0.131-0.27-0.249-0.398-0.369c-0.014-0.013-0.014-0.025-0.038-0.025   c-0.117-0.117-0.237-0.235-0.382-0.344c-0.146-0.131-0.303-0.264-0.463-0.382c-0.131-0.104-0.25-0.197-0.366-0.291   c-0.556-0.409-1.122-0.776-1.729-1.106c-0.305-0.173-0.619-0.344-0.938-0.501c-2.242-1.096-4.775-1.715-7.429-1.715   c-1.883,0-3.705,0.304-5.396,0.87c-0.022,0.013-0.062,0.026-0.091,0.039c-0.46,0.187-0.936,0.37-1.396,0.581   c-2.35,1.067-4.395,2.65-6.016,4.604c-0.13,0.157-0.275,0.328-0.396,0.486c-0.354,0.448-0.67,0.924-0.978,1.413   c-0.673,1.094-1.237,2.279-1.663,3.521c-0.193,0.565-0.365,1.146-0.516,1.741c0,0.052-0.012,0.104-0.024,0.145   c-0.116,0.557-0.208,1.106-0.274,1.674c0,0.028-0.012,0.028-0.012,0.056c-0.066,0.54-0.105,1.106-0.121,1.661   c0,0.054-0.014,0.104-0.014,0.156v0.106c0,0.022,0,0.052,0.014,0.078c-0.014,0.026-0.014,0.026-0.014,0.039v13.164h-3.325v-13.541   c0.025-4.841,1.769-9.312,4.655-12.78c0.396-0.476,0.818-0.95,1.255-1.387c0.104-0.104,0.226-0.211,0.33-0.328   c0.187-0.173,0.354-0.345,0.54-0.488l0.105-0.104c0.014-0.014,0.023-0.04,0.051-0.04c3.537-3.125,8.193-5.012,13.283-5.012   c0.172,0,0.33,0,0.502,0.014c0.015,0,0.015,0,0.015,0c0.354,0.014,0.71,0.025,1.067,0.054c0.328,0.025,0.646,0.053,0.978,0.104   c0.302,0.026,0.618,0.079,0.909,0.133c0.156,0.025,0.305,0.053,0.463,0.093c0.154,0.026,0.304,0.054,0.46,0.093   c0.119,0.025,0.235,0.053,0.354,0.079c0.305,0.078,0.605,0.157,0.896,0.236c0.133,0.054,0.275,0.094,0.424,0.133   c0.053,0.014,0.104,0.04,0.143,0.053c0.146,0.04,0.266,0.079,0.41,0.133c0.159,0.053,0.314,0.118,0.477,0.171   c0.156,0.065,0.316,0.12,0.477,0.187c0.313,0.132,0.617,0.264,0.908,0.407c0.172,0.065,0.314,0.147,0.463,0.212   c0.158,0.078,0.305,0.157,0.449,0.236s0.288,0.146,0.434,0.238c0.156,0.079,0.291,0.157,0.438,0.249   c0.172,0.094,0.33,0.186,0.486,0.291c0.158,0.104,0.315,0.212,0.478,0.315c0.161,0.104,0.304,0.211,0.463,0.316   c0.158,0.104,0.313,0.225,0.462,0.343c0.078,0.053,0.156,0.118,0.236,0.186c0.146,0.094,0.275,0.212,0.396,0.315   c0.131,0.094,0.237,0.186,0.357,0.291c0.225,0.211,0.46,0.422,0.686,0.633c0.012,0,0.012,0,0.023,0.015   c0.104,0.118,0.227,0.225,0.343,0.344c0.12,0.104,0.224,0.224,0.343,0.342c0.121,0.119,0.239,0.237,0.344,0.37   c0.016,0.013,0.016,0.013,0.029,0.026c0.129,0.144,0.262,0.304,0.395,0.435c0.119,0.146,0.227,0.291,0.346,0.422   c0.053,0.08,0.133,0.159,0.195,0.251c0.488,0.594,0.925,1.229,1.318,1.873c0.078,0.104,0.133,0.211,0.194,0.317   c0.017,0.024,0.017,0.039,0.042,0.078c0,0.014,0,0.025,0.014,0.025c0.016,0.026,0.016,0.039,0.025,0.065   c0.016,0.013,0.023,0.024,0.039,0.053C214.48,93.006,215.454,96.422,215.454,100.074z"
       id="path4971" /><defs
       id="defs4973"><filter
         id="Adobe_OpacityMaskFilter_6_"
         filterUnits="userSpaceOnUse"
         x="193.325"
         y="92.971"
         width="23.579"
         height="32.688"><feColorMatrix
           type="matrix"
           values="1 0 0 0 0  0 1 0 0 0  0 0 1 0 0  0 0 0 1 0"
           id="feColorMatrix4976" /></filter></defs><mask
       maskUnits="userSpaceOnUse"
       x="193.325"
       y="92.971"
       width="23.579"
       height="32.688"
       id="SVGID_15_"><g
         filter="url(#Adobe_OpacityMaskFilter_6_)"
         id="g4979"><linearGradient
           id="SVGID_14_"
           gradientUnits="userSpaceOnUse"
           x1="678.0215"
           y1="-360.6865"
           x2="625.439"
           y2="-381.4784"
           gradientTransform="matrix(1 0 0 -1 -447.0547 -259.6406)"><stop
             offset="0"
             style="stop-color:#8A8C8E"
             id="stop4982" /><stop
             offset="0.2386"
             style="stop-color:#77797B"
             id="stop4984" /><stop
             offset="0.7482"
             style="stop-color:#4E4E50"
             id="stop4986" /><stop
             offset="1"
             style="stop-color:#383839"
             id="stop4988" /></linearGradient><path
           fill="url(#SVGID_14_)"
           d="M201.825,113.562l0.114-0.268l5.112-11.188l-7.75-12.842l-10.223,2.058l-1.677,14.926     c0,0-3.764,22.753-3.408,23.244c0.355,0.496,13.988,10.883,14.812,10.556c0.822-0.33,19.125-8.083,19.125-8.083l1.98-18.403     H201.825z"
           id="path4990" /></g></mask><g
       mask="url(#SVGID_15_)"
       id="g4992"><path
         fill="#FFFFFF"
         d="M210.217,113.62c-3.229,3.56-7.711,5.948-12.751,6.487v-4.631l0.011-19.147l3.172,2.562l0.02,0.021v17.239    c1.74-0.582,3.359-1.448,4.801-2.529L210.217,113.62L210.217,113.62z"
         id="path4994" /><path
         fill="#FFFFFF"
         d="M216.904,113.62c-4.5,7.21-12.488,12.039-21.629,12.039c-0.659,0-1.31-0.021-1.95-0.08V92.971l3.2,2.59    v25.817c4.142-0.229,7.949-1.64,11.129-3.89c0.281-0.2,0.562-0.41,0.822-0.631c0.129-0.09,0.276-0.188,0.398-0.311    c0.271-0.229,0.538-0.449,0.79-0.689c0.13-0.103,0.25-0.219,0.369-0.33c0.108-0.117,0.229-0.229,0.351-0.369    c0.109-0.088,0.211-0.189,0.303-0.299c0.099-0.092,0.188-0.189,0.27-0.28c0.159-0.169,0.32-0.341,0.479-0.522    c0.131-0.147,0.252-0.287,0.361-0.437H216.904z"
         id="path4996" /></g><path
       fill="#FFFFFF"
       d="M220.783,100.152c0,4.945-1.439,9.55-3.879,13.468h-5.104c0.053-0.056,0.092-0.106,0.131-0.158   c0.133-0.172,0.268-0.33,0.385-0.504c0.016-0.011,0.016-0.022,0.024-0.039c2.702-3.571,4.3-8.019,4.3-12.829v-0.559   c-0.016-0.156-0.016-0.327-0.022-0.485c-0.017-0.172-0.017-0.356-0.025-0.541c-0.026-0.187-0.042-0.354-0.055-0.541   c-0.039-0.384-0.095-0.776-0.146-1.159c-0.023-0.146-0.056-0.291-0.082-0.438c-0.022-0.186-0.062-0.354-0.104-0.526   c-0.064-0.344-0.146-0.698-0.236-1.028c-2.332-9.231-10.695-16.062-20.666-16.062c-2.203,0-4.328,0.328-6.334,0.963   c-0.978,0.304-1.926,0.674-2.832,1.106c-0.201,0.094-0.4,0.198-0.599,0.289c-0.21,0.105-0.407,0.227-0.618,0.33   c-0.188,0.105-0.355,0.198-0.527,0.317c-0.129,0.064-0.265,0.146-0.395,0.235c-0.12,0.079-0.252,0.158-0.382,0.237   c-0.068,0.052-0.146,0.093-0.214,0.146c-0.039,0.026-0.094,0.065-0.133,0.094c-0.051,0.024-0.104,0.064-0.146,0.092   c-0.104,0.079-0.208,0.146-0.313,0.227c-0.347,0.264-0.699,0.525-1.026,0.804c-4.774,3.918-7.81,9.854-7.81,16.488v13.543h-4.207   V74.604c0.272,0.015,2.004,0.094,4.071,0.767c2.087,0.674,4.513,1.939,6.201,4.301c0.291-0.21,0.579-0.409,0.87-0.619   c4.087-2.784,9.033-4.419,14.361-4.419C209.357,74.631,220.783,86.055,220.783,100.152z"
       id="path4998" /><path
       fill="#FFFFFF"
       d="M166.105,89.859v0.04c-0.349,0.449-0.67,0.93-0.969,1.41c-0.682,1.09-1.25,2.271-1.66,3.51   c-0.201,0.57-0.369,1.149-0.511,1.75c-0.01,0.051-0.021,0.102-0.03,0.141c-0.119,0.551-0.219,1.102-0.277,1.661   c0,0.028-0.012,0.039-0.012,0.049c-0.069,0.562-0.102,1.108-0.11,1.683c-0.011,0.049-0.019,0.099-0.019,0.146v0.102   c0,0.021,0,0.061,0.008,0.082c-0.008,0.021-0.008,0.027-0.008,0.049v13.141h-3.321v-13.52c0.021-4.853,1.759-9.302,4.641-12.761   c0.398-0.481,0.811-0.95,1.26-1.392c0.109-0.1,0.221-0.21,0.33-0.319c0.182-0.17,0.352-0.341,0.53-0.49   C166.059,86.92,166.088,88.659,166.105,89.859z"
       id="path5000" /><path
       fill="#FFFFFF"
       d="M166.105,91.421V113.6l-0.019,0.021h-2.61v-13.52C163.497,96.891,164.456,93.909,166.105,91.421z"
       id="path5002" /><path
       fill="#FFFFFF"
       d="M165.866,83.65c-4.759,3.899-7.781,9.81-7.781,16.439v13.53h-4.208V74.681   c0.559,0.02,6.891,0.35,10.26,5.06c0.748,1.062,1.358,2.341,1.721,3.891C165.866,83.631,165.866,83.64,165.866,83.65z"
       id="path5004" /><defs
       id="defs5006"><filter
         id="Adobe_OpacityMaskFilter_7_"
         filterUnits="userSpaceOnUse"
         x="153.876"
         y="113.62"
         width="12.212"
         height="9.858"><feColorMatrix
           type="matrix"
           values="1 0 0 0 0  0 1 0 0 0  0 0 1 0 0  0 0 0 1 0"
           id="feColorMatrix5009" /></filter></defs><mask
       maskUnits="userSpaceOnUse"
       x="153.876"
       y="113.62"
       width="12.212"
       height="9.858"
       id="SVGID_2_"><g
         filter="url(#Adobe_OpacityMaskFilter_7_)"
         id="g5012"><linearGradient
           id="SVGID_16_"
           gradientUnits="userSpaceOnUse"
           x1="632.1416"
           y1="542.4404"
           x2="632.7665"
           y2="560.8138"
           gradientTransform="matrix(1 0 0 1 -472 -431)"><stop
             offset="0"
             style="stop-color:#8C8E90"
             id="stop5015" /><stop
             offset="0.4007"
             style="stop-color:#4F5051"
             id="stop5017" /><stop
             offset="0.8054"
             style="stop-color:#161617"
             id="stop5019" /><stop
             offset="1"
             style="stop-color:#000000"
             id="stop5021" /></linearGradient><rect
           x="153.185"
           y="113.628"
           fill="url(#SVGID_16_)"
           width="14.426"
           height="10.67"
           id="rect5023" /></g></mask><g
       mask="url(#SVGID_2_)"
       id="g5025"><polygon
         fill="#FFFFFF"
         points="158.085,113.62 158.085,120.089 153.897,123.479 153.876,123.479 153.876,113.62   "
         id="polygon5027" /><polygon
         fill="#FFFFFF"
         points="162.518,113.62 162.518,116.509 159.197,119.198 159.197,113.62   "
         id="polygon5029" /><polygon
         fill="#FFFFFF"
         points="166.088,113.62 163.477,115.729 163.477,113.62   "
         id="polygon5031" /></g></g></svg>