<?xml version="1.0" encoding="UTF-8" standalone="no"?>
<!-- Created with Inkscape (http://www.inkscape.org/) -->

<svg
   xmlns:dc="http://purl.org/dc/elements/1.1/"
   xmlns:cc="http://creativecommons.org/ns#"
   xmlns:rdf="http://www.w3.org/1999/02/22-rdf-syntax-ns#"
   xmlns:svg="http://www.w3.org/2000/svg"
   xmlns="http://www.w3.org/2000/svg"
   xmlns:sodipodi="http://sodipodi.sourceforge.net/DTD/sodipodi-0.dtd"
   xmlns:inkscape="http://www.inkscape.org/namespaces/inkscape"
   version="1.1"
   id="Layer_1"
   x="0px"
   y="0px"
   width="600px"
   height="600px"
   viewBox="0 0 600 600"
   enable-background="new 0 0 600 600"
   xml:space="preserve"
   inkscape:version="0.91 r13725"
   sodipodi:docname="icon_ink.svg"><metadata
     id="metadata4159"><rdf:RDF><cc:Work
         rdf:about=""><dc:format>image/svg+xml</dc:format><dc:type
           rdf:resource="http://purl.org/dc/dcmitype/StillImage" /><dc:title></dc:title></cc:Work></rdf:RDF></metadata><defs
     id="defs4157" /><sodipodi:namedview
     pagecolor="#ffffff"
     bordercolor="#666666"
     borderopacity="1"
     objecttolerance="10"
     gridtolerance="10"
     guidetolerance="10"
     inkscape:pageopacity="0"
     inkscape:pageshadow="2"
     inkscape:window-width="1920"
     inkscape:window-height="1017"
     id="namedview4155"
     showgrid="false"
     inkscape:zoom="1.4133333"
     inkscape:cx="300"
     inkscape:cy="300"
     inkscape:window-x="-8"
     inkscape:window-y="-8"
     inkscape:window-maximized="1"
     inkscape:current-layer="Layer_1" /><g
     enable-background="new    "
     id="g4137"><path
       fill="#96C43D"
       d="M510.485,472.483c0,20.9-17.1,38-38,38H127.515c-20.9,0-38-17.1-38-38V127.517c0-20.9,17.1-38,38-38   h344.971c20.9,0,38,17.1,38,38V472.483z"
       id="path4139" /></g><g
     id="g4141"><path
       fill="#FFFFFF"
       d="M217.232,396.357l-0.35,0.241v-0.702C216.994,396.064,217.114,396.185,217.232,396.357z"
       id="path4143" /><path
       fill="#FFFFFF"
       d="M217.232,396.357l-0.35,0.241v-0.702C216.994,396.064,217.114,396.185,217.232,396.357z"
       id="path4145" /><g
       id="g4147"><path
         fill="#FFFFFF"
         d="M420.893,299.695c0,62.265-47.189,113.482-107.726,119.96v-27.746l0.043-114.373l19.153,15.48v102.972    c40.124-13.394,68.996-51.293,68.996-95.938c0-2.493-0.105-4.943-0.259-7.426c0,0,0-0.048,0-0.1    c-1.222-16.403-6.367-31.678-14.515-44.97c-0.51-0.917-1.119-1.884-1.734-2.75c-1.176-1.818-2.449-3.598-3.713-5.283    c-1.469-1.991-3.045-3.927-4.648-5.813c-0.541-0.614-1.053-1.224-1.613-1.833c-1.373-1.532-2.796-2.996-4.284-4.42    c-0.763-0.764-1.582-1.53-2.401-2.245c-0.046-0.052-0.098-0.103-0.197-0.155c-0.716-0.714-1.457-1.373-2.271-2.038    c-0.918-0.767-1.838-1.58-2.811-2.295c-0.765-0.613-1.471-1.171-2.244-1.73c-4.806-3.589-9.921-6.731-15.327-9.402    c1.669,0.849,3.308,1.8,4.994,2.787c-14.767-8.443-31.873-13.341-50.092-13.341c-11.302,0-22.166,1.888-32.286,5.29    c-0.215,0.05-0.412,0.15-0.57,0.199c-2.803,1.071-5.589,2.197-8.391,3.469c-14.054,6.421-26.325,15.937-35.999,27.65v-0.103    c-0.816,0.967-1.628,1.988-2.388,2.957c-2.095,2.708-4.036,5.542-5.816,8.449c-4.079,6.579-7.483,13.645-9.975,21.092    c-1.226,3.396-2.244,6.912-3.064,10.481c-0.044,0.304-0.096,0.611-0.151,0.867c-0.767,3.297-1.329,6.61-1.734,9.977    c0,0.149-0.046,0.203-0.046,0.31c-0.413,3.311-0.613,6.661-0.665,10.021c-0.055,0.305-0.101,0.615-0.101,0.914v0.617    c0,0.155,0,0.359,0.046,0.508c-0.046,0.103-0.046,0.153-0.046,0.258v96.287l-19.958,16.125V299.695    c0.159-29.076,10.593-55.809,27.904-76.628c2.397-2.852,4.88-5.659,7.535-8.293c0.662-0.613,1.328-1.273,1.986-1.935    c1.075-1.019,2.138-2.041,3.214-2.956l0.608-0.612c0.106-0.101,0.211-0.207,0.355-0.258c21.177-18.691,49.081-29.99,79.542-29.99    c1.02,0,2.021,0,3.036,0.048c0.046,0,0.046,0,0.046,0c2.146,0.048,4.295,0.151,6.381,0.356c1.987,0.101,3.915,0.306,5.863,0.558    c1.862,0.205,3.7,0.515,5.494,0.868c0.907,0.156,1.825,0.306,2.745,0.515c0.899,0.15,1.832,0.353,2.737,0.559    c0.719,0.151,1.435,0.355,2.142,0.509c1.835,0.404,3.677,0.916,5.398,1.426c0.817,0.255,1.684,0.507,2.499,0.768    c0.312,0.1,0.621,0.199,0.904,0.301c0.823,0.257,1.595,0.511,2.398,0.812c0.973,0.312,1.937,0.668,2.91,1.024    c0.905,0.356,1.836,0.716,2.797,1.122c1.893,0.763,3.729,1.53,5.514,2.398c0.958,0.444,1.832,0.846,2.723,1.306    c0.931,0.458,1.795,0.919,2.655,1.376c0.921,0.459,1.793,0.918,2.655,1.427c0.914,0.459,1.731,0.969,2.593,1.482    c1.026,0.609,1.946,1.171,2.902,1.781c0.958,0.61,1.934,1.279,2.851,1.888c0.916,0.613,1.835,1.274,2.803,1.938    c0.918,0.614,1.831,1.273,2.703,1.969c0.512,0.375,0.971,0.766,1.475,1.126c0.819,0.606,1.636,1.27,2.403,1.935    c0.715,0.561,1.361,1.122,2.07,1.734c1.373,1.223,2.755,2.495,4.126,3.771c0.055,0.048,0.106,0.048,0.158,0.1    c0.66,0.667,1.371,1.327,2.039,2.038c0.709,0.665,1.379,1.322,2.038,2.025c0.706,0.763,1.426,1.479,2.087,2.245    c0.047,0.049,0.104,0.096,0.151,0.153c0.772,0.862,1.58,1.785,2.323,2.647c0.725,0.819,1.386,1.683,2.099,2.5    c0.36,0.509,0.771,0.967,1.174,1.479c2.907,3.567,5.556,7.321,7.955,11.249c0.408,0.613,0.765,1.226,1.117,1.886    c0.099,0.154,0.153,0.255,0.24,0.458c0,0.106,0.048,0.154,0.112,0.208c0.046,0.154,0.103,0.202,0.154,0.353    c0.056,0.103,0.136,0.206,0.189,0.306C415.101,257.327,420.893,277.806,420.893,299.695z"
         id="path4149" /><path
         fill="#FFFFFF"
         d="M204.818,393.59l15.831-12.786V247.609c-9.929,14.919-15.727,32.844-15.831,52.086V393.59z"
         id="path4151" /><path
         fill="#FFFFFF"
         d="M299.984,147.275c-31.877,0-61.504,9.769-85.974,26.477c-1.787,1.206-3.504,2.43-5.221,3.703    c-10.104-14.156-24.672-21.714-37.127-25.763c-12.46-4.041-22.814-4.571-24.491-4.642v293.072h0.1l25.15-20.312V299.695    c0-39.815,18.193-75.354,46.763-98.771c0,0,0,0,0-0.018c1.993-1.645,4.083-3.264,6.21-4.807c0.598-0.492,1.245-0.919,1.869-1.325    c0.26-0.239,0.548-0.429,0.834-0.581c0.296-0.204,0.54-0.408,0.833-0.542c0.409-0.324,0.831-0.58,1.243-0.87    c0.781-0.503,1.545-0.998,2.317-1.496c0.793-0.49,1.552-0.946,2.371-1.408c1.037-0.662,2.072-1.255,3.129-1.833    c1.239-0.694,2.448-1.363,3.696-1.988c1.195-0.597,2.367-1.208,3.581-1.75c5.466-2.585,11.122-4.811,16.989-6.614    c12-3.805,24.763-5.776,37.959-5.776c59.702,0,109.77,40.889,123.782,96.188c0.535,2.038,1.031,4.115,1.432,6.204    c0.23,1.035,0.433,2.069,0.6,3.143c0.171,0.885,0.316,1.752,0.457,2.636c0.364,2.275,0.665,4.604,0.902,6.935    c0.102,1.104,0.203,2.16,0.297,3.244c0.062,1.071,0.128,2.158,0.2,3.265c0.051,0.952,0.068,1.917,0.097,2.874    c0.041,1.085,0.041,2.208,0.041,3.309c0,28.835-9.588,55.487-25.752,76.886c-0.056,0.086-0.096,0.17-0.163,0.252    c-0.749,1.017-1.517,1.981-2.305,2.978c-0.98,1.206-1.991,2.404-2.982,3.586c-0.928,1.067-1.874,2.101-2.824,3.144    c-0.529,0.537-1.03,1.114-1.583,1.665c-0.576,0.624-1.2,1.269-1.822,1.866c-0.707,0.708-1.452,1.426-2.174,2.126    c-0.731,0.695-1.441,1.36-2.156,2.024c-1.559,1.387-3.141,2.784-4.751,4.11c-0.771,0.679-1.584,1.342-2.383,1.922    c-1.614,1.255-3.246,2.469-4.917,3.673c-19.026,13.503-41.892,21.963-66.677,23.345V272.948l-19.154-15.48v42.243l-0.041,95.206    v57.572c3.857,0.307,7.732,0.461,11.645,0.461c84.408,0,152.844-68.431,152.844-152.844    C452.828,215.709,384.393,147.275,299.984,147.275z"
         id="path4153" /></g></g></svg>