<?xml version="1.0" encoding="UTF-8" standalone="no"?>
<!-- Created with Inkscape (http://www.inkscape.org/) -->

<svg
   xmlns:dc="http://purl.org/dc/elements/1.1/"
   xmlns:cc="http://creativecommons.org/ns#"
   xmlns:rdf="http://www.w3.org/1999/02/22-rdf-syntax-ns#"
   xmlns:svg="http://www.w3.org/2000/svg"
   xmlns="http://www.w3.org/2000/svg"
   xmlns:sodipodi="http://sodipodi.sourceforge.net/DTD/sodipodi-0.dtd"
   xmlns:inkscape="http://www.inkscape.org/namespaces/inkscape"
   version="1.1"
   id="Layer_1"
   x="0px"
   y="0px"
   width="300px"
   height="300px"
   viewBox="0 0 300 300"
   enable-background="new 0 0 300 300"
   xml:space="preserve"
   inkscape:version="0.91 r13725"
   sodipodi:docname="logo_ink.svg"><metadata
     id="metadata4225"><rdf:RDF><cc:Work
         rdf:about=""><dc:format>image/svg+xml</dc:format><dc:type
           rdf:resource="http://purl.org/dc/dcmitype/StillImage" /><dc:title></dc:title></cc:Work></rdf:RDF></metadata><defs
     id="defs4223" /><sodipodi:namedview
     pagecolor="#ffffff"
     bordercolor="#666666"
     borderopacity="1"
     objecttolerance="10"
     gridtolerance="10"
     guidetolerance="10"
     inkscape:pageopacity="0"
     inkscape:pageshadow="2"
     inkscape:window-width="1920"
     inkscape:window-height="1017"
     id="namedview4221"
     showgrid="false"
     inkscape:zoom="0.78666667"
     inkscape:cx="150"
     inkscape:cy="150"
     inkscape:window-x="-8"
     inkscape:window-y="-8"
     inkscape:window-maximized="1"
     inkscape:current-layer="Layer_1" /><g
     id="g4162"><linearGradient
       id="SVGID_1_"
       gradientUnits="userSpaceOnUse"
       x1="334.2695"
       y1="-109.3325"
       x2="333.9849"
       y2="-109.9098"
       gradientTransform="matrix(1 0 0 -1 -236 85)"><stop
         offset="2.989960e-04"
         style="stop-color:#C3DB6D"
         id="stop4165" /><stop
         offset="0.3493"
         style="stop-color:#99CB5B"
         id="stop4167" /><stop
         offset="0.7796"
         style="stop-color:#65BC4C"
         id="stop4169" /><stop
         offset="0.9924"
         style="stop-color:#4AB749"
         id="stop4171" /></linearGradient><path
       fill="url(#SVGID_1_)"
       d="M98.283,194.607l-0.18,0.123v-0.362C98.163,194.462,98.224,194.521,98.283,194.607z"
       id="path4173" /><linearGradient
       id="SVGID_2_"
       gradientUnits="userSpaceOnUse"
       x1="334.3486"
       y1="-109.1719"
       x2="333.9461"
       y2="-109.9882"
       gradientTransform="matrix(1 0 0 -1 -236 85)"><stop
         offset="2.989960e-04"
         style="stop-color:#C3DB6D"
         id="stop4176" /><stop
         offset="0.3493"
         style="stop-color:#99CB5B"
         id="stop4178" /><stop
         offset="0.7796"
         style="stop-color:#65BC4C"
         id="stop4180" /><stop
         offset="0.9924"
         style="stop-color:#4AB749"
         id="stop4182" /></linearGradient><path
       fill="url(#SVGID_2_)"
       d="M98.283,194.607l-0.18,0.123v-0.362C98.163,194.462,98.224,194.521,98.283,194.607z"
       id="path4184" /><g
       id="g4186"><linearGradient
         id="SVGID_3_"
         gradientUnits="userSpaceOnUse"
         x1="438.001"
         y1="46.792"
         x2="315.5055"
         y2="-220.1984"
         gradientTransform="matrix(1 0 0 -1 -236 85)"><stop
           offset="2.989960e-04"
           style="stop-color:#C3DB6D"
           id="stop4189" /><stop
           offset="0.3493"
           style="stop-color:#99CB5B"
           id="stop4191" /><stop
           offset="0.7796"
           style="stop-color:#65BC4C"
           id="stop4193" /><stop
           offset="0.9924"
           style="stop-color:#4AB749"
           id="stop4195" /></linearGradient><path
         fill="url(#SVGID_3_)"
         d="M221.141,151.379c0,36.641-27.771,66.78-63.391,70.592v-16.33l0.021-67.301l11.27,9.11v60.59    c23.609-7.88,40.6-30.181,40.6-56.449c0-1.471-0.06-2.911-0.148-4.371c0,0,0-0.03,0-0.06c-0.721-9.65-3.75-18.64-8.54-26.46    c-0.3-0.54-0.66-1.11-1.021-1.62c-0.689-1.07-1.439-2.12-2.189-3.11c-0.86-1.17-1.79-2.31-2.73-3.42    c-0.318-0.36-0.619-0.72-0.949-1.08c-0.811-0.9-1.649-1.76-2.521-2.6c-0.45-0.45-0.931-0.9-1.41-1.32    c-0.03-0.03-0.06-0.06-0.12-0.09c-0.42-0.42-0.859-0.81-1.34-1.2c-0.54-0.45-1.08-0.93-1.648-1.35    c-0.45-0.36-0.871-0.69-1.32-1.02c-2.83-2.11-5.84-3.96-9.021-5.53c0.98,0.5,1.95,1.06,2.94,1.64    c-8.69-4.97-18.761-7.85-29.48-7.85c-6.649,0-13.039,1.11-18.999,3.11c-0.12,0.03-0.24,0.09-0.33,0.12    c-1.65,0.63-3.29,1.29-4.94,2.04c-8.27,3.78-15.49,9.38-21.18,16.27v-0.06c-0.48,0.57-0.96,1.17-1.41,1.74    c-1.23,1.59-2.37,3.26-3.42,4.97c-2.4,3.87-4.4,8.03-5.87,12.41c-0.72,2-1.32,4.07-1.8,6.17c-0.03,0.18-0.061,0.36-0.09,0.51    c-0.45,1.94-0.78,3.89-1.021,5.87c0,0.09-0.03,0.12-0.03,0.18c-0.239,1.95-0.359,3.92-0.39,5.899    c-0.03,0.18-0.06,0.359-0.06,0.541v0.359c0,0.09,0,0.209,0.029,0.3c-0.029,0.06-0.029,0.091-0.029,0.149v56.66l-11.74,9.489v-67.5    c0.09-17.109,6.229-32.84,16.42-45.09c1.41-1.68,2.87-3.33,4.43-4.88c0.391-0.36,0.78-0.75,1.17-1.14    c0.631-0.6,1.261-1.2,1.891-1.74l0.359-0.36c0.061-0.06,0.12-0.12,0.21-0.15c12.46-11,28.881-17.65,46.8-17.65    c0.601,0,1.19,0,1.79,0.03c0.03,0,0.03,0,0.03,0c1.261,0.03,2.521,0.09,3.75,0.21c1.17,0.06,2.3,0.18,3.45,0.33    c1.1,0.12,2.18,0.3,3.229,0.51c0.541,0.09,1.08,0.18,1.62,0.3c0.53,0.09,1.08,0.21,1.61,0.33c0.42,0.09,0.84,0.21,1.26,0.3    c1.08,0.24,2.16,0.54,3.18,0.84c0.48,0.15,0.99,0.3,1.471,0.45c0.181,0.06,0.359,0.12,0.529,0.18c0.48,0.15,0.94,0.3,1.41,0.48    c0.57,0.18,1.141,0.39,1.711,0.6c0.539,0.21,1.079,0.42,1.649,0.66c1.11,0.45,2.19,0.9,3.239,1.41c0.57,0.26,1.08,0.5,1.609,0.77    c0.54,0.27,1.051,0.54,1.562,0.81c0.54,0.27,1.05,0.54,1.56,0.84c0.54,0.27,1.021,0.57,1.53,0.87c0.601,0.36,1.14,0.69,1.7,1.05    c0.568,0.36,1.14,0.75,1.68,1.11c0.54,0.36,1.08,0.75,1.65,1.14c0.539,0.36,1.08,0.75,1.59,1.16c0.3,0.22,0.57,0.45,0.869,0.66    c0.479,0.36,0.961,0.75,1.41,1.14c0.42,0.33,0.801,0.66,1.221,1.02c0.81,0.72,1.619,1.47,2.43,2.22    c0.03,0.03,0.061,0.03,0.09,0.06c0.391,0.39,0.811,0.78,1.2,1.2c0.42,0.39,0.812,0.78,1.2,1.19c0.42,0.45,0.84,0.87,1.229,1.32    c0.03,0.03,0.062,0.06,0.092,0.09c0.449,0.51,0.93,1.05,1.369,1.56c0.42,0.48,0.811,0.99,1.229,1.47c0.21,0.3,0.45,0.57,0.69,0.87    c1.709,2.1,3.27,4.31,4.68,6.62c0.24,0.36,0.449,0.72,0.66,1.11c0.06,0.09,0.09,0.15,0.14,0.27c0,0.06,0.03,0.09,0.069,0.12    c0.021,0.09,0.061,0.12,0.091,0.21c0.03,0.06,0.08,0.12,0.11,0.18C217.73,126.449,221.141,138.5,221.141,151.379z"
         id="path4197" /><linearGradient
         id="SVGID_4_"
         gradientUnits="userSpaceOnUse"
         x1="402.291"
         y1="63.1797"
         x2="279.7922"
         y2="-203.818"
         gradientTransform="matrix(1 0 0 -1 -236 85)"><stop
           offset="2.989960e-04"
           style="stop-color:#C3DB6D"
           id="stop4200" /><stop
           offset="0.3493"
           style="stop-color:#99CB5B"
           id="stop4202" /><stop
           offset="0.7796"
           style="stop-color:#65BC4C"
           id="stop4204" /><stop
           offset="0.9924"
           style="stop-color:#4AB749"
           id="stop4206" /></linearGradient><path
         fill="url(#SVGID_4_)"
         d="M93.99,206.628l9.317-7.521V120.73c-5.843,8.779-9.258,19.325-9.317,30.649V206.628z"
         id="path4208" /><linearGradient
         id="SVGID_5_"
         gradientUnits="userSpaceOnUse"
         x1="424.6934"
         y1="52.8975"
         x2="302.1955"
         y2="-214.0981"
         gradientTransform="matrix(1 0 0 -1 -236 85)"><stop
           offset="2.989960e-04"
           style="stop-color:#C3DB6D"
           id="stop4211" /><stop
           offset="0.3493"
           style="stop-color:#99CB5B"
           id="stop4213" /><stop
           offset="0.7796"
           style="stop-color:#65BC4C"
           id="stop4215" /><stop
           offset="0.9924"
           style="stop-color:#4AB749"
           id="stop4217" /></linearGradient><path
         fill="url(#SVGID_5_)"
         d="M149.99,61.689c-18.76,0-36.19,5.75-50.59,15.58c-1.05,0.71-2.061,1.43-3.07,2.18    c-5.95-8.33-14.52-12.78-21.85-15.16s-13.42-2.69-14.41-2.73V234.01h0.06l14.801-11.949v-70.682c0-23.43,10.699-44.34,27.51-58.12    c0,0,0,0,0-0.01c1.18-0.97,2.41-1.92,3.66-2.83c0.35-0.29,0.729-0.54,1.1-0.78c0.15-0.14,0.32-0.25,0.49-0.34    c0.17-0.12,0.32-0.24,0.49-0.32c0.239-0.19,0.489-0.34,0.729-0.51c0.46-0.3,0.91-0.59,1.37-0.88c0.46-0.29,0.91-0.56,1.39-0.83    c0.61-0.39,1.221-0.74,1.841-1.08c0.729-0.41,1.439-0.8,2.18-1.17c0.7-0.35,1.39-0.71,2.1-1.03c3.221-1.52,6.55-2.83,10-3.89    c7.061-2.24,14.57-3.4,22.34-3.4c35.131,0,64.59,24.06,72.84,56.6c0.312,1.2,0.602,2.42,0.84,3.65    c0.131,0.61,0.25,1.22,0.352,1.85c0.1,0.52,0.189,1.03,0.27,1.55c0.211,1.34,0.392,2.71,0.53,4.08c0.062,0.65,0.12,1.27,0.17,1.91    c0.04,0.63,0.08,1.27,0.12,1.92c0.03,0.56,0.04,1.13,0.061,1.69c0.021,0.64,0.021,1.3,0.021,1.95    c0,16.971-5.64,32.649-15.149,45.239c-0.029,0.052-0.061,0.101-0.101,0.149c-0.44,0.601-0.89,1.171-1.351,1.75    c-0.58,0.711-1.17,1.421-1.76,2.111c-0.541,0.629-1.101,1.238-1.66,1.85c-0.311,0.32-0.609,0.66-0.931,0.979    c-0.34,0.369-0.71,0.75-1.069,1.101c-0.42,0.42-0.859,0.84-1.279,1.25c-0.432,0.41-0.852,0.8-1.271,1.189    c-0.92,0.819-1.85,1.641-2.8,2.42c-0.45,0.399-0.93,0.79-1.399,1.131c-0.949,0.738-1.91,1.449-2.891,2.16    c-11.199,7.948-24.648,12.93-39.24,13.738v-90.82l-11.27-9.11v24.86l-0.02,56.021v33.88c2.27,0.181,4.55,0.271,6.85,0.271    c49.67,0,89.939-40.271,89.939-89.94C239.93,101.959,199.66,61.689,149.99,61.689z"
         id="path4219" /></g></g></svg>