<?xml version="1.0" encoding="utf-8"?>
<!-- Generator: Adobe Illustrator 16.0.0, SVG Export Plug-In . SVG Version: 6.00 Build 0)  -->
<!DOCTYPE svg PUBLIC "-//W3C//DTD SVG 1.1//EN" "http://www.w3.org/Graphics/SVG/1.1/DTD/svg11.dtd">
<svg version="1.1" id="Layer_1" xmlns="http://www.w3.org/2000/svg" xmlns:xlink="http://www.w3.org/1999/xlink" x="0px" y="0px"
	 width="841.89px" height="595.28px" viewBox="0 0 841.89 595.28" enable-background="new 0 0 841.89 595.28" xml:space="preserve">
<g>
	<path fill="#1C75BC" d="M667.871,274.536l-10.94-51.693c-2.972-14.06-16.915-23.131-30.976-20.155l-10.57,2.238
		c-7.032,1.484-16.302,3.446-25.571,5.408c-12.563-22.89-29.992-42.778-50.854-58.291c3.201-8.912,6.402-17.832,8.835-24.596
		l3.651-10.187c4.86-13.527-2.229-28.566-15.761-33.422l-49.697-17.832c-13.527-4.856-28.566,2.238-33.422,15.765l-3.672,10.21
		c-2.428,6.768-5.625,15.68-8.826,24.6c-3.042-0.19-6.088-0.249-9.161-0.249c-27.624,0-53.836,6.177-77.259,17.272l0,0
		c-6.346-7.036-12.69-14.067-17.503-19.397l-7.246-8.038c-9.627-10.668-26.237-11.523-36.911-1.9l-39.211,35.373
		c-10.672,9.623-11.527,26.231-1.898,36.903l7.244,8.026c4.813,5.338,11.157,12.37,17.501,19.409
		c-14.013,23.166-22.954,49.716-25.382,78.143l0,0c-9.266,1.962-18.537,3.924-25.569,5.404l-10.6,2.25
		c-14.062,2.972-23.135,16.915-20.161,30.975l10.942,51.694c2.974,14.056,16.913,23.127,30.977,20.155l10.571-2.238
		c7.034-1.491,16.299-3.446,25.569-5.408c12.599,22.891,29.99,42.743,50.825,58.26c0.004,0,0.004,0,0.004,0
		c-3.197,8.92-6.396,17.832-8.825,24.6l-3.65,10.179c-4.856,13.52,2.246,28.57,15.773,33.434l49.697,17.848
		c13.529,4.86,28.574-2.229,33.426-15.757l3.667-10.214c2.428-6.764,5.629-15.676,8.831-24.596l0,0
		c3.043,0.19,6.117,0.244,9.188,0.244c27.626,0,53.811-6.173,77.229-17.237l0,0c6.345,7.032,12.688,14.063,17.502,19.401l7.245,8.03
		c9.627,10.673,26.235,11.523,36.907,1.893l39.22-35.389c10.672-9.631,11.526-26.239,1.899-36.907l-7.249-8.03
		c-4.811-5.334-11.154-12.366-17.502-19.401l0,0c14.017-23.17,22.987-49.721,25.411-78.15l0,0c9.27-1.962,18.539-3.92,25.571-5.404
		l10.574-2.245C661.775,302.539,670.847,288.595,667.871,274.536z M434.041,379.57c-1.045,0.034-2.09,0.058-3.135,0.058
		c-19.145,0-36.719-6.542-50.672-17.571c-8.022-6.271-14.877-14.075-20.037-22.961c-7.162-12.167-11.278-26.336-11.278-41.452
		c0-3.9,0.275-7.743,0.827-11.496c1.321-9.616,4.334-18.683,8.726-26.919c9.437-17.73,25.171-31.592,44.225-38.562
		c7.865-2.894,16.288-4.581,25.078-4.918c1.043-0.035,2.088-0.066,3.131-0.066c19.149,0,36.693,6.55,50.645,17.552
		c8.054,6.294,14.876,14.071,20.035,22.957c7.195,12.16,11.281,26.336,11.281,41.453c0,3.9-0.279,7.773-0.831,11.519
		c-1.32,9.593-4.331,18.625-8.726,26.861c-9.409,17.766-25.167,31.654-44.254,38.632
		C451.217,377.542,442.829,379.232,434.041,379.57z"/>
	<path d="M384.57,540.75c-4.144,0-8.227-0.711-12.139-2.117l-49.697-17.848c-18.729-6.732-28.495-27.439-21.771-46.153
		l10.039-27.983c-17.448-14.088-32.492-31.329-44.039-50.471l-29.075,6.15c-2.449,0.521-4.951,0.781-7.439,0.781
		c-16.962,0-31.82-12.032-35.326-28.605l-10.942-51.693c-1.989-9.402-0.183-19.036,5.087-27.129
		c5.268-8.096,13.347-13.65,22.746-15.635l29.089-6.158c3-24.281,10.476-47.301,22.286-68.624l-19.895-22.057
		c-6.438-7.135-9.709-16.375-9.213-26.018c0.497-9.646,4.699-18.5,11.833-24.934l39.209-35.373
		c6.622-5.969,15.196-9.254,24.149-9.254c10.225,0,19.998,4.328,26.808,11.876l19.895,22.055
		c23.586-10.074,48.688-15.175,74.729-15.175c0.775,0,1.523,0.004,2.248,0.012l10.052-27.991
		c5.124-14.279,18.796-23.877,34.013-23.877c4.142,0,8.221,0.713,12.129,2.115l49.697,17.832
		c9.044,3.246,16.293,9.845,20.411,18.578c4.118,8.735,4.601,18.525,1.349,27.568l-10.043,27.983
		c17.482,14.099,32.537,31.352,44.067,50.501l29.067-6.15c2.447-0.519,4.953-0.781,7.443-0.781
		c16.962,0,31.818,12.032,35.322,28.609l10.94,51.691c1.989,9.4,0.183,19.033-5.085,27.129
		c-5.269,8.096-13.346,13.647-22.747,15.637l-29.063,6.15c-2.995,24.258-10.481,47.284-22.312,68.632l19.896,22.055
		c13.329,14.767,12.151,37.626-2.619,50.956l-39.219,35.388c-6.62,5.972-15.198,9.262-24.152,9.262l0,0
		c-10.226,0-19.992-4.327-26.803-11.876l-19.896-22.055c-23.597,10.05-48.687,15.144-74.696,15.144
		c-0.787,0-1.544-0.004-2.274-0.012l-10.051,27.991C413.459,531.158,399.79,540.75,384.57,540.75z M277.127,373.695l3.555,6.465
		c11.773,21.387,28.39,40.432,48.054,55.078l5.905,4.397l-14.956,41.713c-3.017,8.403,1.37,17.696,9.777,20.719l49.694,17.848
		c1.749,0.625,3.57,0.944,5.414,0.944c6.847,0,12.993-4.301,15.289-10.699l15.021-41.846l7.459,0.467
		c2.457,0.155,5.181,0.225,8.566,0.225c25.556,0,50.108-5.478,72.979-16.285l6.683-3.155l29.7,32.918
		c3.042,3.376,7.428,5.311,12.032,5.311l0,0c4.024,0,7.866-1.469,10.827-4.142l39.219-35.389c6.628-5.979,7.156-16.234,1.177-22.858
		l-29.7-32.918l3.826-6.324c13.684-22.618,21.76-47.463,24.01-73.846l0.629-7.358l43.36-9.176c4.211-0.89,7.828-3.384,10.198-7.026
		c2.37-3.643,3.182-7.96,2.292-12.162l-10.94-51.693c-1.569-7.438-8.239-12.834-15.858-12.834c-1.11,0-2.229,0.118-3.325,0.35
		l-43.368,9.174l-3.551-6.473c-11.74-21.391-28.364-40.44-48.072-55.095l-5.917-4.402l14.977-41.719
		c1.457-4.048,1.235-8.438-0.618-12.364c-1.849-3.928-5.097-6.89-9.141-8.341l-49.697-17.832c-1.748-0.627-3.566-0.946-5.408-0.946
		c-6.845,0-12.995,4.305-15.295,10.711l-15.02,41.841l-7.459-0.466c-2.498-0.157-5.212-0.229-8.539-0.229
		c-25.586,0-50.147,5.49-73,16.315l-6.688,3.168l-29.707-32.933c-3.042-3.372-7.432-5.307-12.038-5.307
		c-4.023,0-7.869,1.468-10.828,4.135l-39.207,35.371c-3.19,2.875-5.07,6.847-5.292,11.185c-0.223,4.338,1.237,8.483,4.114,11.67
		l29.695,32.927l-3.823,6.319c-13.658,22.578-21.727,47.422-23.984,73.842l-0.627,7.354l-43.386,9.18
		c-4.209,0.891-7.828,3.387-10.198,7.028c-2.37,3.641-3.186,7.96-2.298,12.16l10.942,51.693c1.573,7.436,8.246,12.832,15.866,12.832
		c1.109,0,2.228-0.116,3.323-0.35L277.127,373.695z M430.906,389.574c-20.868,0-40.522-6.818-56.839-19.717
		c-9.106-7.117-16.681-15.796-22.471-25.766c-8.248-14.013-12.623-30.093-12.623-46.448c0-4.375,0.315-8.729,0.932-12.943
		c1.443-10.509,4.742-20.686,9.791-30.151c10.689-20.085,28.3-35.437,49.584-43.222c8.924-3.285,18.389-5.144,28.112-5.517
		c1.204-0.041,2.359-0.074,3.514-0.074c20.827,0,40.47,6.809,56.803,19.689c9.113,7.121,16.689,15.802,22.479,25.771
		c8.243,13.935,12.626,30.021,12.626,46.447c0,4.382-0.315,8.745-0.937,12.968c-1.441,10.471-4.739,20.626-9.79,30.094
		c-10.648,20.104-28.274,35.488-49.615,43.29c-8.912,3.282-18.356,5.14-28.048,5.513
		C433.218,389.551,432.062,389.574,430.906,389.574z M430.906,225.628c-0.933,0-1.867,0.029-2.799,0.06
		c-7.584,0.292-14.994,1.744-21.976,4.312c-16.692,6.105-30.493,18.143-38.879,33.9c-3.943,7.395-6.517,15.332-7.653,23.602
		c-0.492,3.351-0.734,6.73-0.734,10.142c0,12.812,3.425,25.399,9.903,36.406c4.542,7.82,10.449,14.588,17.591,20.171
		c13.543,10.707,30.058,15.971,47.35,15.407c7.551-0.287,14.94-1.74,21.914-4.304c16.732-6.119,30.539-18.175,38.899-33.955
		c3.955-7.417,6.527-15.334,7.661-23.562c0.494-3.36,0.738-6.748,0.738-10.163c0-12.863-3.422-25.447-9.895-36.389
		c-4.554-7.836-10.459-14.604-17.6-20.185C462.604,230.958,447.22,225.628,430.906,225.628z"/>
</g>
<g>
	<g>
		<path fill="#50B848" d="M329.093,298.292c0,15.979,2.715,30.28,8.156,42.887c5.432,12.606,12.91,23.29,22.424,32.035
			c9.516,8.757,20.791,15.439,33.825,20.059c13.04,4.623,27.16,6.935,42.361,6.935c9.021,0,17.728-1.554,26.139-4.646
			c8.399-3.101,16.216-7.121,23.445-12.07c7.23-4.95,13.688-10.54,19.367-16.795c5.684-6.251,10.381-12.58,14.087-18.994
			l18.17,10.272c-5.318,7.61-11.589,14.945-18.815,22.016c-7.233,7.063-15.605,13.283-25.12,18.664
			c-9.515,5.38-20.264,9.7-32.253,12.964c-11.985,3.264-25.393,4.891-40.221,4.891c-14.208,0-27.614-1.434-40.221-4.319
			c-12.604-2.879-24.192-6.9-34.755-12.067c-10.569-5.155-20.02-11.383-28.36-18.671c-8.341-7.276-15.387-15.299-21.13-24.052
			c-5.748-8.745-10.171-18.119-13.256-28.127c-3.09-9.996-4.635-20.318-4.635-30.979c0-10.652,1.58-21.006,4.724-31.06
			c3.159-10.058,7.665-19.518,13.539-28.376c5.863-8.854,13.062-16.985,21.591-24.375c8.524-7.393,18.131-13.722,28.823-19.001
			c10.688-5.272,22.401-9.375,35.125-12.312c12.727-2.934,26.324-4.398,40.782-4.398c13.714,0,26.348,1.627,37.901,4.891
			c11.555,3.263,22.121,7.583,31.702,12.964c9.572,5.381,18.073,11.604,25.485,18.667c7.416,7.067,13.776,14.406,19.095,22.012
			l-18.722,11.092c-10.878-18.372-22.983-31.853-36.332-40.442c-13.346-8.582-28.672-12.883-45.968-12.883
			c-14.955,0-28.914,2.393-41.892,7.18c-12.978,4.786-24.285,11.631-33.927,20.543c-9.639,8.912-17.236,19.732-22.797,32.447
			C331.871,267.962,329.093,282.31,329.093,298.292z"/>
		<path d="M420.658,422.476c-14.617,0-28.597-1.503-41.554-4.472c-12.997-2.968-25.126-7.18-36.045-12.521
			c-10.969-5.35-20.952-11.927-29.664-19.537c-8.704-7.596-16.173-16.1-22.193-25.271c-6.038-9.188-10.738-19.161-13.971-29.646
			c-3.25-10.513-4.899-21.527-4.899-32.735c0-11.192,1.681-22.243,4.996-32.841c3.32-10.573,8.118-20.629,14.262-29.893
			c6.139-9.271,13.763-17.881,22.657-25.586c8.852-7.679,18.975-14.355,30.087-19.84c11.043-5.449,23.296-9.746,36.423-12.776
			c13.104-3.021,27.274-4.551,42.125-4.551c14.207,0,27.506,1.721,39.522,5.116c11.957,3.376,23.061,7.92,33.002,13.504
			c9.973,5.604,18.947,12.181,26.683,19.549c7.649,7.29,14.331,14.998,19.868,22.914l3.687,5.274l-29.394,17.412l-3.042-5.136
			c-10.354-17.486-21.935-30.427-34.425-38.465c-12.312-7.917-26.694-11.933-42.739-11.933c-14.172,0-27.573,2.292-39.827,6.811
			c-12.179,4.493-22.927,10.995-31.942,19.328c-8.978,8.302-16.171,18.549-21.379,30.456c-5.2,11.898-7.838,25.577-7.838,40.658
			c0,15.098,2.58,28.733,7.669,40.521c5.074,11.779,12.133,21.873,20.983,30.008c8.871,8.166,19.562,14.499,31.779,18.826
			c12.339,4.375,25.92,6.593,40.369,6.593c8.252,0,16.356-1.44,24.079-4.281c7.902-2.917,15.354-6.748,22.133-11.391
			c6.838-4.681,12.999-10.023,18.321-15.886c5.381-5.916,9.868-11.962,13.338-17.964l2.956-5.12l29.032,16.414l-3.76,5.381
			c-5.502,7.87-12.071,15.562-19.534,22.862c-7.572,7.394-16.438,13.982-26.355,19.593c-9.899,5.598-21.212,10.147-33.625,13.527
			C450.017,420.759,435.957,422.476,420.658,422.476z M422.884,184.738c-13.949,0-27.22,1.428-39.442,4.246
			c-12.228,2.823-23.609,6.809-33.824,11.848c-10.196,5.035-19.468,11.144-27.553,18.158c-8.077,6.997-14.982,14.788-20.526,23.16
			c-5.524,8.333-9.839,17.372-12.821,26.869c-2.952,9.438-4.45,19.289-4.45,29.273c0,10.012,1.471,19.841,4.369,29.216
			c2.9,9.413,7.119,18.363,12.541,26.611c5.427,8.271,12.177,15.952,20.068,22.836c7.923,6.924,17.024,12.91,27.053,17.801
			c10.101,4.942,21.36,8.851,33.467,11.616c12.086,2.767,25.171,4.169,38.893,4.169c14.241,0,27.246-1.573,38.652-4.682
			c11.461-3.119,21.849-7.292,30.886-12.4c9.021-5.102,17.059-11.068,23.889-17.739c5.232-5.12,9.988-10.438,14.188-15.862
			l-7.319-4.138c-3.329,5.051-7.257,10.074-11.729,14.988c-5.94,6.547-12.809,12.502-20.408,17.704
			c-7.591,5.198-15.92,9.487-24.751,12.747c-9.056,3.329-18.543,5.015-28.205,5.015c-15.812,0-30.734-2.447-44.356-7.276
			c-13.741-4.871-25.81-12.035-35.87-21.293c-10.093-9.277-18.123-20.738-23.863-34.063c-5.736-13.291-8.644-28.512-8.644-45.249
			c0-16.736,2.974-32.023,8.836-45.438c5.872-13.426,14.019-25.014,24.213-34.44c10.175-9.401,22.257-16.723,35.915-21.76
			c13.58-5.01,28.37-7.548,43.956-7.548c18.372,0,34.923,4.654,49.196,13.831c12.789,8.23,24.58,20.773,35.115,37.333l7.988-4.73
			c-4.254-5.458-9.106-10.794-14.491-15.924c-7.013-6.684-15.187-12.667-24.293-17.786c-9.118-5.122-19.347-9.303-30.399-12.424
			C448.202,186.308,435.996,184.738,422.884,184.738z"/>
	</g>
</g>
<g>
	<path fill="#FFFFFF" d="M528.812,297.64c0,54.083-43.838,97.925-97.921,97.925c-54.081,0-97.923-43.842-97.923-97.925
		c0-54.079,43.842-97.921,97.923-97.921C484.974,199.719,528.812,243.561,528.812,297.64z"/>
	<path d="M430.891,401.531c-57.286,0-103.89-46.604-103.89-103.892c0-57.284,46.604-103.888,103.89-103.888
		c57.284,0,103.889,46.604,103.889,103.888C534.779,354.928,488.175,401.531,430.891,401.531z M430.891,205.686
		c-50.705,0-91.955,41.25-91.955,91.954c0,50.707,41.25,91.957,91.955,91.957c50.703,0,91.954-41.25,91.954-91.957
		C522.845,246.937,481.594,205.686,430.891,205.686z"/>
</g>
<g>
	<path fill="#BC1A2A" d="M489.669,243.945c0,20.997-17.024,38.025-38.028,38.025c-20.996,0-38.02-17.028-38.02-38.025
		s17.023-38.025,38.02-38.025C472.645,205.92,489.669,222.949,489.669,243.945z"/>
	<path d="M451.641,287.331c-23.919,0-43.38-19.462-43.38-43.385s19.461-43.385,43.38-43.385c23.925,0,43.39,19.462,43.39,43.385
		S475.565,287.331,451.641,287.331z M451.641,211.281c-18.007,0-32.659,14.653-32.659,32.664s14.652,32.664,32.659,32.664
		c18.013,0,32.668-14.653,32.668-32.664S469.653,211.281,451.641,211.281z"/>
</g>
</svg>
